<?xml version="1.0" encoding="UTF-8"?>
<!DOCTYPE svg PUBLIC "-//W3C//DTD SVG 1.1//EN" "http://www.w3.org/Graphics/SVG/1.1/DTD/svg11.dtd">
<!-- Creator: CorelDRAW -->
<svg xmlns="http://www.w3.org/2000/svg" xml:space="preserve" width="108px" height="104px" version="1.1" style="shape-rendering:geometricPrecision; text-rendering:geometricPrecision; image-rendering:optimizeQuality; fill-rule:evenodd; clip-rule:evenodd"
viewBox="0 0 6.27 6.04"
 xmlns:xlink="http://www.w3.org/1999/xlink"
 xmlns:xodm="http://www.corel.com/coreldraw/odm/2003">
 <defs>
  <style type="text/css">
   <![CDATA[
    .fil1 {fill:white;fill-rule:nonzero}
    .fil2 {fill:#E31F25;fill-rule:nonzero}
    .fil0 {fill:#50A338;fill-rule:nonzero}
    .fil3 {fill:#3B5998;fill-rule:nonzero}
   ]]>
  </style>
 </defs>
 <g id="Vrstva_x0020_1">
  <metadata id="CorelCorpID_0Corel-Layer"/>
  <g id="_105555564226624">
   <path class="fil0" d="M4.69 3.05c0,0.85 -0.7,1.55 -1.55,1.55 -0.86,0 -1.55,-0.7 -1.55,-1.55 0,-0.86 0.69,-1.55 1.55,-1.55 0.85,0 1.55,0.69 1.55,1.55z"/>
   <path class="fil1" d="M2.05 2.95c0.01,-0.02 0.03,-0.04 0.05,-0.06 0.14,-0.13 0.27,-0.26 0.41,-0.4 0.1,-0.1 0.21,-0.19 0.31,-0.29 0.07,-0.07 0.14,-0.14 0.21,-0.2 0.07,-0.06 0.15,-0.06 0.21,0 0.11,0.1 0.22,0.2 0.32,0.3 0,0 0.01,0 0.01,0.01 0,-0.01 0,-0.02 0,-0.03 0,-0.08 0,-0.17 0,-0.26 0,-0.05 0.02,-0.06 0.06,-0.06 0.08,0 0.16,0 0.23,0 0.04,0 0.06,0.01 0.06,0.06 0,0.2 0,0.4 0,0.6 0,0.01 0,0.03 0.01,0.04 0.09,0.08 0.18,0.17 0.27,0.25 0.01,0.01 0.02,0.03 0.03,0.04 0,0.01 0,0.02 0,0.03 -0.03,0.04 -0.06,0.08 -0.08,0.12 -0.03,0.03 -0.05,0.04 -0.08,0.01 -0.08,-0.08 -0.16,-0.16 -0.25,-0.24 -0.07,-0.06 -0.14,-0.13 -0.21,-0.2 -0.07,-0.07 -0.15,-0.14 -0.22,-0.21 -0.08,-0.08 -0.16,-0.15 -0.24,-0.23 -0.01,-0.01 -0.01,-0.01 -0.02,0 -0.08,0.07 -0.15,0.14 -0.22,0.21 -0.07,0.07 -0.15,0.14 -0.22,0.21 -0.07,0.07 -0.14,0.13 -0.22,0.2 -0.08,0.08 -0.16,0.16 -0.24,0.24 -0.01,0.01 -0.02,0.02 -0.03,0.02 -0.02,0.02 -0.04,0.02 -0.06,0 -0.03,-0.05 -0.06,-0.09 -0.09,-0.13 0,-0.01 0,-0.02 0,-0.03z"/>
   <path class="fil1" d="M3.31 3.94c0,-0.19 0,-0.39 0,-0.59 -0.01,0 -0.01,0 -0.02,0 -0.1,0 -0.2,0 -0.31,0 -0.01,0 -0.02,0 -0.02,0.02 0,0.18 0,0.37 0,0.55 0,0.01 0,0.01 0,0.03 0,0 -0.01,0 -0.02,0 -0.16,0 -0.32,0 -0.48,0 -0.07,0 -0.1,-0.04 -0.1,-0.12 0,-0.23 0,-0.47 0,-0.71 0,-0.02 0,-0.03 0.02,-0.04 0.12,-0.12 0.24,-0.23 0.36,-0.34 0.1,-0.1 0.21,-0.2 0.31,-0.3 0.03,-0.03 0.06,-0.06 0.09,-0.08 0.04,0.04 0.08,0.07 0.12,0.11 0.13,0.12 0.25,0.23 0.37,0.35 0.09,0.09 0.19,0.17 0.28,0.26 0,0.01 0.01,0.02 0.01,0.03 0,0.24 0,0.49 0,0.74 0,0.05 -0.04,0.1 -0.09,0.1 -0.17,0 -0.34,0 -0.51,0 0,0 0,0 -0.01,-0.01z"/>
   <path class="fil2" d="M3.13 0.26l0.2 0c0.01,0 0.02,-0.01 0.02,-0.02 0,-0.01 -0.01,-0.02 -0.02,-0.02l-0.2 0c-0.01,0 -0.02,0.01 -0.02,0.02 0,0.01 0.01,0.02 0.02,0.02zm-0.26 -0.19l0.54 0 0 0.34 -0.54 0 0 -0.34zm0.32 0.45l-0.09 0c-0.02,0 -0.03,-0.01 -0.03,-0.03 0,-0.01 0.01,-0.02 0.03,-0.02l0.09 0c0.01,0 0.02,0.01 0.02,0.02 0,0.02 -0.01,0.03 -0.02,0.03zm0.33 -0.07l0 0 -0.04 -0.01 0 -0.4c0,-0.02 -0.01,-0.04 -0.03,-0.04l-0.61 0c-0.02,0 -0.04,0.02 -0.04,0.04l0 0.4 -0.04 0.01 0 0c-0.01,0.01 -0.02,0.02 -0.02,0.03l0 0.06c0,0.02 0.01,0.03 0.03,0.03l0.74 0c0.02,0 0.04,-0.01 0.04,-0.03l0 -0.06c0,-0.01 -0.01,-0.02 -0.03,-0.03zm-0.57 -0.1l0.38 0c0.01,0 0.02,-0.01 0.02,-0.02 0,-0.01 -0.01,-0.03 -0.02,-0.03l-0.38 0c-0.01,0 -0.02,0.02 -0.02,0.03 0,0.01 0.01,0.02 0.02,0.02zm0.18 -0.18l0.2 0c0.01,0 0.02,-0.01 0.02,-0.02 0,-0.01 -0.01,-0.02 -0.02,-0.02l-0.2 0c-0.01,0 -0.02,0.01 -0.02,0.02 0,0.01 0.01,0.02 0.02,0.02zm-0.1 -0.05l-0.07 0c-0.01,0 -0.02,0.01 -0.02,0.02l0 0.09c0,0.01 0.01,0.02 0.02,0.02l0.07 0c0.01,0 0.02,-0.01 0.02,-0.02l0 -0.09c0,-0.01 -0.01,-0.02 -0.02,-0.02z"/>
   <polygon class="fil3" points="4.78,3.15 5.09,3.15 5.09,3.31 5.4,3.05 5.09,2.78 5.09,2.95 4.78,2.95 "/>
   <polygon class="fil3" points="4.6,2.31 4.88,2.16 4.96,2.3 5.1,1.91 4.69,1.84 4.78,1.99 4.5,2.14 "/>
   <polygon class="fil3" points="4.04,1.68 4.19,1.41 4.34,1.49 4.27,1.09 3.88,1.23 4.03,1.31 3.87,1.58 "/>
   <polygon class="fil3" points="3.23,1.41 3.23,1.1 3.4,1.1 3.13,0.78 2.87,1.1 3.04,1.1 3.04,1.41 "/>
   <polygon class="fil3" points="2.4,1.59 2.24,1.31 2.39,1.23 2,1.09 1.93,1.49 2.07,1.41 2.23,1.68 "/>
   <polygon class="fil3" points="1.77,2.15 1.49,1.99 1.58,1.85 1.17,1.92 1.31,2.31 1.39,2.16 1.67,2.32 "/>
   <polygon class="fil3" points="1.5,2.96 1.18,2.96 1.18,2.79 0.87,3.06 1.18,3.32 1.18,3.15 1.5,3.15 "/>
   <polygon class="fil3" points="1.67,3.79 1.4,3.95 1.32,3.8 1.18,4.19 1.58,4.26 1.5,4.12 1.77,3.96 "/>
   <polygon class="fil3" points="2.24,4.42 2.08,4.7 1.94,4.61 2.01,5.02 2.39,4.88 2.25,4.79 2.41,4.52 "/>
   <polygon class="fil3" points="3.04,4.69 3.04,5.01 2.88,5.01 3.14,5.32 3.41,5.01 3.24,5.01 3.24,4.69 "/>
   <polygon class="fil3" points="3.88,4.52 4.03,4.79 3.89,4.87 4.27,5.01 4.35,4.61 4.2,4.69 4.04,4.42 "/>
   <polygon class="fil3" points="4.51,3.95 4.78,4.11 4.7,4.25 5.1,4.18 4.96,3.8 4.88,3.94 4.61,3.78 "/>
   <g>
    <path class="fil2" d="M1.93 0.38c-0.22,0 -0.45,0 -0.68,0 -0.02,0 -0.03,0.02 -0.03,0.03l0 0.45c0,0.02 0.01,0.04 0.03,0.04l0.27 0 -0.01 0.08 -0.07 0c-0.01,0 -0.03,0.01 -0.03,0.03 0,0.01 0.02,0.02 0.03,0.02l0.31 0c0.01,0 0.02,-0.01 0.02,-0.02 0,-0.02 -0.01,-0.03 -0.02,-0.03l-0.07 0 -0.01 -0.08 0.26 0c0.02,0 0.04,-0.02 0.04,-0.04l0 -0.45c0,-0.01 -0.02,-0.03 -0.04,-0.03zm-0.03 0.07l0 0.32 -0.61 0 0 -0.32c0.2,0 0.4,0 0.61,0zm-0.31 0.42c-0.01,0 -0.02,-0.01 -0.02,-0.02 0,-0.02 0.01,-0.03 0.02,-0.03 0.02,0 0.03,0.01 0.03,0.03 0,0.01 -0.01,0.02 -0.03,0.02z"/>
    <path class="fil2" d="M1.58 0.64l0.2 0c0.01,0 0.02,-0.01 0.02,-0.02 0,-0.02 -0.01,-0.03 -0.02,-0.03l-0.2 0c-0.01,0 -0.02,0.01 -0.02,0.03 0,0.01 0.01,0.02 0.02,0.02z"/>
    <path class="fil2" d="M1.4 0.73l0.38 0c0.01,0 0.02,-0.01 0.02,-0.03 0,-0.01 -0.01,-0.02 -0.02,-0.02l-0.38 0c-0.01,0 -0.02,0.01 -0.02,0.02 0,0.02 0.01,0.03 0.02,0.03z"/>
    <path class="fil2" d="M1.58 0.55l0.2 0c0.01,0 0.02,-0.01 0.02,-0.02 0,-0.02 -0.01,-0.03 -0.02,-0.03l-0.2 0c-0.01,0 -0.02,0.01 -0.02,0.03 0,0.01 0.01,0.02 0.02,0.02z"/>
    <path class="fil2" d="M1.49 0.5l-0.08 0c-0.01,0 -0.01,0.01 -0.01,0.02l0 0.09c0,0.01 0,0.01 0.01,0.01l0.08 0c0.01,0 0.01,0 0.01,-0.01l0 -0.09c0,-0.01 0,-0.02 -0.01,-0.02z"/>
   </g>
   <path class="fil2" d="M0.58 1.7l0.2 0c0.01,0 0.02,-0.01 0.02,-0.03 0,-0.01 -0.01,-0.02 -0.02,-0.02l-0.2 0c-0.01,0 -0.02,0.01 -0.02,0.02 0,0.02 0.01,0.03 0.02,0.03zm-0.26 -0.19l0.54 0 0 0.34 -0.54 0 0 -0.34zm0.32 0.44l-0.09 0c-0.02,0 -0.03,-0.01 -0.03,-0.02 0,-0.02 0.01,-0.03 0.03,-0.03l0.09 0c0.01,0 0.02,0.01 0.02,0.03 0,0.01 -0.01,0.02 -0.02,0.02zm0.33 -0.06l0 0 -0.04 -0.02 0 -0.4c0,-0.02 -0.01,-0.03 -0.03,-0.03l-0.61 0c-0.02,0 -0.04,0.01 -0.04,0.03l0 0.4 -0.04 0.02 0 0c-0.01,0 -0.02,0.01 -0.02,0.03l0 0.05c0,0.02 0.01,0.04 0.03,0.04l0.74 0c0.02,0 0.04,-0.02 0.04,-0.04l0 -0.05c0,-0.02 -0.01,-0.03 -0.03,-0.03zm-0.57 -0.1l0.38 0c0.01,0 0.02,-0.01 0.02,-0.03 0,-0.01 -0.01,-0.02 -0.02,-0.02l-0.38 0c-0.01,0 -0.02,0.01 -0.02,0.02 0,0.02 0.01,0.03 0.02,0.03zm0.18 -0.18l0.2 0c0.01,0 0.02,-0.01 0.02,-0.03 0,-0.01 -0.01,-0.02 -0.02,-0.02l-0.2 0c-0.01,0 -0.02,0.01 -0.02,0.02 0,0.02 0.01,0.03 0.02,0.03zm-0.1 -0.05l-0.07 0c-0.01,0 -0.02,0 -0.02,0.01l0 0.09c0,0.01 0.01,0.02 0.02,0.02l0.07 0c0.01,0 0.02,-0.01 0.02,-0.02l0 -0.09c0,-0.01 -0.01,-0.01 -0.02,-0.01z"/>
   <g>
    <path class="fil2" d="M0.72 2.72c-0.23,0 -0.46,0 -0.68,0 -0.02,0 -0.04,0.02 -0.04,0.04l0 0.44c0,0.02 0.02,0.04 0.04,0.04l0.26 0 -0.01 0.08 -0.07 0c-0.01,0 -0.02,0.01 -0.02,0.03 0,0.01 0.01,0.03 0.02,0.03l0.31 0c0.01,0 0.03,-0.02 0.03,-0.03 0,-0.02 -0.02,-0.03 -0.03,-0.03l-0.07 0 -0.01 -0.08 0.27 0c0.02,0 0.03,-0.02 0.03,-0.04l0 -0.44c0,-0.02 -0.01,-0.04 -0.03,-0.04zm-0.04 0.07l0 0.32 -0.61 0 0 -0.32c0.21,0 0.41,0 0.61,0zm-0.3 0.42c-0.02,0 -0.03,-0.01 -0.03,-0.02 0,-0.02 0.01,-0.03 0.03,-0.03 0.01,0 0.02,0.01 0.02,0.03 0,0.01 -0.01,0.02 -0.02,0.02z"/>
    <path class="fil2" d="M0.37 2.98l0.2 0c0.01,0 0.02,-0.01 0.02,-0.02 0,-0.02 -0.01,-0.03 -0.02,-0.03l-0.2 0c-0.01,0 -0.02,0.01 -0.02,0.03 0,0.01 0.01,0.02 0.02,0.02z"/>
    <path class="fil2" d="M0.19 3.07l0.38 0c0.01,0 0.02,-0.01 0.02,-0.02 0,-0.02 -0.01,-0.03 -0.02,-0.03l-0.38 0c-0.01,0 -0.02,0.01 -0.02,0.03 0,0.01 0.01,0.02 0.02,0.02z"/>
    <path class="fil2" d="M0.37 2.89l0.2 0c0.01,0 0.02,-0.01 0.02,-0.02 0,-0.02 -0.01,-0.03 -0.02,-0.03l-0.2 0c-0.01,0 -0.02,0.01 -0.02,0.03 0,0.01 0.01,0.02 0.02,0.02z"/>
    <path class="fil2" d="M0.27 2.84l-0.07 0c-0.01,0 -0.02,0.01 -0.02,0.02l0 0.09c0,0.01 0.01,0.02 0.02,0.02l0.07 0c0.01,0 0.02,-0.01 0.02,-0.02l0 -0.09c0,-0.01 -0.01,-0.02 -0.02,-0.02z"/>
   </g>
   <path class="fil2" d="M0.71 4.38l0.2 0c0.01,0 0.02,-0.01 0.02,-0.02 0,-0.01 -0.01,-0.02 -0.02,-0.02l-0.2 0c-0.01,0 -0.02,0.01 -0.02,0.02 0,0.01 0.01,0.02 0.02,0.02zm-0.26 -0.19l0.54 0 0 0.34 -0.54 0 0 -0.34zm0.31 0.45l-0.09 0c-0.01,0 -0.02,-0.01 -0.02,-0.03 0,-0.01 0.01,-0.02 0.02,-0.02l0.09 0c0.02,0 0.03,0.01 0.03,0.02 0,0.02 -0.01,0.03 -0.03,0.03zm0.34 -0.07l0 0 -0.04 -0.01 0 -0.4c0,-0.02 -0.02,-0.04 -0.04,-0.04l-0.61 0c-0.02,0 -0.03,0.02 -0.03,0.04l0 0.4 -0.04 0.01 0 0c-0.02,0.01 -0.03,0.02 -0.03,0.04l0 0.05c0,0.02 0.02,0.04 0.04,0.04l0.74 0c0.02,0 0.03,-0.02 0.03,-0.04l0 -0.05c0,-0.02 -0.01,-0.03 -0.02,-0.04zm-0.57 -0.1l0.38 0c0.01,0 0.02,-0.01 0.02,-0.02 0,-0.01 -0.01,-0.02 -0.02,-0.02l-0.38 0c-0.01,0 -0.02,0.01 -0.02,0.02 0,0.01 0.01,0.02 0.02,0.02zm0.18 -0.18l0.2 0c0.01,0 0.02,-0.01 0.02,-0.02 0,-0.01 -0.01,-0.02 -0.02,-0.02l-0.2 0c-0.01,0 -0.02,0.01 -0.02,0.02 0,0.01 0.01,0.02 0.02,0.02zm-0.1 -0.05l-0.07 0c-0.01,0 -0.02,0.01 -0.02,0.02l0 0.09c0,0.01 0.01,0.02 0.02,0.02l0.07 0c0.01,0 0.02,-0.01 0.02,-0.02l0 -0.09c0,-0.01 -0.01,-0.02 -0.02,-0.02z"/>
   <g>
    <path class="fil2" d="M2.01 5.18c-0.23,0 -0.45,0 -0.68,0 -0.02,0 -0.04,0.01 -0.04,0.03l0 0.45c0,0.02 0.02,0.04 0.04,0.04l0.27 0 -0.02 0.08 -0.06 0c-0.02,0 -0.03,0.01 -0.03,0.03 0,0.01 0.01,0.02 0.03,0.02l0.3 0c0.02,0 0.03,-0.01 0.03,-0.02 0,-0.02 -0.01,-0.03 -0.03,-0.03l-0.06 0 -0.02 -0.08 0.27 0c0.02,0 0.04,-0.02 0.04,-0.04l0 -0.45c0,-0.02 -0.02,-0.03 -0.04,-0.03zm-0.04 0.07l0 0.32 -0.61 0 0 -0.32c0.21,0 0.41,0 0.61,0zm-0.3 0.42c-0.02,0 -0.03,-0.01 -0.03,-0.03 0,-0.01 0.01,-0.02 0.03,-0.02 0.01,0 0.03,0.01 0.03,0.02 0,0.02 -0.02,0.03 -0.03,0.03z"/>
    <path class="fil2" d="M1.66 5.44l0.2 0c0.01,0 0.02,-0.01 0.02,-0.03 0,-0.01 -0.01,-0.02 -0.02,-0.02l-0.2 0c-0.01,0 -0.02,0.01 -0.02,0.02 0,0.02 0.01,0.03 0.02,0.03z"/>
    <path class="fil2" d="M1.48 5.53l0.38 0c0.01,0 0.02,-0.01 0.02,-0.03 0,-0.01 -0.01,-0.02 -0.02,-0.02l-0.38 0c-0.01,0 -0.02,0.01 -0.02,0.02 0,0.02 0.01,0.03 0.02,0.03z"/>
    <path class="fil2" d="M1.66 5.35l0.2 0c0.01,0 0.02,-0.01 0.02,-0.02 0,-0.02 -0.01,-0.03 -0.02,-0.03l-0.2 0c-0.01,0 -0.02,0.01 -0.02,0.03 0,0.01 0.01,0.02 0.02,0.02z"/>
    <path class="fil2" d="M1.56 5.3l-0.07 0c-0.01,0 -0.02,0.01 -0.02,0.02l0 0.09c0,0.01 0.01,0.01 0.02,0.01l0.07 0c0.01,0 0.02,0 0.02,-0.01l0 -0.09c0,-0.01 -0.01,-0.02 -0.02,-0.02z"/>
   </g>
   <path class="fil2" d="M3.13 5.72l0.2 0c0.01,0 0.02,-0.01 0.02,-0.02 0,-0.01 -0.01,-0.02 -0.02,-0.02l-0.2 0c-0.01,0 -0.02,0.01 -0.02,0.02 0,0.01 0.01,0.02 0.02,0.02zm-0.26 -0.18l0.54 0 0 0.34 -0.54 0 0 -0.34zm0.32 0.44l-0.09 0c-0.02,0 -0.03,-0.01 -0.03,-0.02 0,-0.02 0.01,-0.03 0.03,-0.03l0.09 0c0.01,0 0.02,0.01 0.02,0.03 0,0.01 -0.01,0.02 -0.02,0.02zm0.33 -0.07l0 0 -0.04 -0.01 0 -0.4c0,-0.02 -0.01,-0.04 -0.03,-0.04l-0.61 0c-0.02,0 -0.04,0.02 -0.04,0.04l0 0.4 -0.04 0.01 0 0c-0.01,0.01 -0.02,0.02 -0.02,0.04l0 0.05c0,0.02 0.01,0.04 0.03,0.04l0.74 0c0.02,0 0.04,-0.02 0.04,-0.04l0 -0.05c0,-0.02 -0.01,-0.03 -0.03,-0.04zm-0.57 -0.1l0.38 0c0.01,0 0.02,-0.01 0.02,-0.02 0,-0.01 -0.01,-0.02 -0.02,-0.02l-0.38 0c-0.01,0 -0.02,0.01 -0.02,0.02 0,0.01 0.01,0.02 0.02,0.02zm0.18 -0.18l0.2 0c0.01,0 0.02,-0.01 0.02,-0.02 0,-0.01 -0.01,-0.02 -0.02,-0.02l-0.2 0c-0.01,0 -0.02,0.01 -0.02,0.02 0,0.01 0.01,0.02 0.02,0.02zm-0.1 -0.05l-0.07 0c-0.01,0 -0.02,0.01 -0.02,0.02l0 0.09c0,0.01 0.01,0.02 0.02,0.02l0.07 0c0.01,0 0.02,-0.01 0.02,-0.02l0 -0.09c0,-0.01 -0.01,-0.02 -0.02,-0.02z"/>
   <g>
    <path class="fil2" d="M5.02 0.38c-0.23,0 -0.45,0 -0.68,0 -0.02,0 -0.04,0.02 -0.04,0.03l0 0.45c0,0.02 0.02,0.04 0.04,0.04l0.27 0 -0.02 0.08 -0.06 0c-0.02,0 -0.03,0.01 -0.03,0.03 0,0.01 0.01,0.02 0.03,0.02l0.3 0c0.02,0 0.03,-0.01 0.03,-0.02 0,-0.02 -0.01,-0.03 -0.03,-0.03l-0.06 0 -0.02 -0.08 0.27 0c0.02,0 0.04,-0.02 0.04,-0.04l0 -0.45c0,-0.01 -0.02,-0.03 -0.04,-0.03zm-0.03 0.07l0 0.32 -0.61 0 0 -0.32c0.2,0 0.4,0 0.61,0zm-0.31 0.42c-0.01,0 -0.03,-0.01 -0.03,-0.02 0,-0.02 0.02,-0.03 0.03,-0.03 0.02,0 0.03,0.01 0.03,0.03 0,0.01 -0.01,0.02 -0.03,0.02z"/>
    <path class="fil2" d="M4.67 0.64l0.2 0c0.01,0 0.02,-0.01 0.02,-0.02 0,-0.02 -0.01,-0.03 -0.02,-0.03l-0.2 0c-0.01,0 -0.02,0.01 -0.02,0.03 0,0.01 0.01,0.02 0.02,0.02z"/>
    <path class="fil2" d="M4.49 0.73l0.38 0c0.01,0 0.02,-0.01 0.02,-0.03 0,-0.01 -0.01,-0.02 -0.02,-0.02l-0.38 0c-0.01,0 -0.02,0.01 -0.02,0.02 0,0.02 0.01,0.03 0.02,0.03z"/>
    <path class="fil2" d="M4.67 0.55l0.2 0c0.01,0 0.02,-0.01 0.02,-0.02 0,-0.02 -0.01,-0.03 -0.02,-0.03l-0.2 0c-0.01,0 -0.02,0.01 -0.02,0.03 0,0.01 0.01,0.02 0.02,0.02z"/>
    <path class="fil2" d="M4.57 0.5l-0.07 0c-0.01,0 -0.02,0.01 -0.02,0.02l0 0.09c0,0.01 0.01,0.01 0.02,0.01l0.07 0c0.01,0 0.02,0 0.02,-0.01l0 -0.09c0,-0.01 -0.01,-0.02 -0.02,-0.02z"/>
   </g>
   <path class="fil2" d="M5.67 1.7l0.2 0c0.01,0 0.02,-0.01 0.02,-0.03 0,-0.01 -0.01,-0.02 -0.02,-0.02l-0.2 0c-0.01,0 -0.02,0.01 -0.02,0.02 0,0.02 0.01,0.03 0.02,0.03zm-0.26 -0.19l0.54 0 0 0.34 -0.54 0 0 -0.34zm0.32 0.44l-0.09 0c-0.02,0 -0.03,-0.01 -0.03,-0.02 0,-0.02 0.01,-0.03 0.03,-0.03l0.09 0c0.01,0 0.02,0.01 0.02,0.03 0,0.01 -0.01,0.02 -0.02,0.02zm0.33 -0.06l0 0 -0.04 -0.02 0 -0.4c0,-0.02 -0.01,-0.03 -0.03,-0.03l-0.61 0c-0.02,0 -0.04,0.01 -0.04,0.03l0 0.4 -0.04 0.02 0 0c-0.01,0 -0.02,0.01 -0.02,0.03l0 0.05c0,0.02 0.02,0.04 0.03,0.04l0.74 0c0.02,0 0.04,-0.02 0.04,-0.04l0 -0.05c0,-0.02 -0.01,-0.03 -0.03,-0.03zm-0.57 -0.1l0.38 0c0.01,0 0.02,-0.01 0.02,-0.03 0,-0.01 -0.01,-0.02 -0.02,-0.02l-0.38 0c-0.01,0 -0.02,0.01 -0.02,0.02 0,0.02 0.01,0.03 0.02,0.03zm0.18 -0.18l0.2 0c0.01,0 0.02,-0.01 0.02,-0.03 0,-0.01 -0.01,-0.02 -0.02,-0.02l-0.2 0c-0.01,0 -0.02,0.01 -0.02,0.02 0,0.02 0.01,0.03 0.02,0.03zm-0.09 -0.05l-0.08 0c-0.01,0 -0.01,0 -0.01,0.01l0 0.09c0,0.01 0,0.02 0.01,0.02l0.08 0c0,0 0.01,-0.01 0.01,-0.02l0 -0.09c0,-0.01 -0.01,-0.01 -0.01,-0.01z"/>
   <g>
    <path class="fil2" d="M6.24 2.72c-0.23,0 -0.46,0 -0.68,0 -0.02,0 -0.04,0.02 -0.04,0.04l0 0.44c0,0.02 0.02,0.04 0.04,0.04l0.26 0 -0.01 0.08 -0.07 0c-0.01,0 -0.02,0.01 -0.02,0.03 0,0.01 0.01,0.03 0.02,0.03l0.31 0c0.01,0 0.03,-0.02 0.03,-0.03 0,-0.02 -0.02,-0.03 -0.03,-0.03l-0.07 0 -0.01 -0.08 0.27 0c0.02,0 0.03,-0.02 0.03,-0.04l0 -0.44c0,-0.02 -0.01,-0.04 -0.03,-0.04zm-0.04 0.07l0 0.32 -0.61 0 0 -0.32c0.21,0 0.41,0 0.61,0zm-0.3 0.42c-0.02,0 -0.03,-0.01 -0.03,-0.02 0,-0.02 0.01,-0.03 0.03,-0.03 0.01,0 0.02,0.01 0.02,0.03 0,0.01 -0.01,0.02 -0.02,0.02z"/>
    <path class="fil2" d="M5.89 2.98l0.2 0c0.01,0 0.02,-0.01 0.02,-0.02 0,-0.02 -0.01,-0.03 -0.02,-0.03l-0.2 0c-0.01,0 -0.02,0.01 -0.02,0.03 0,0.01 0.01,0.02 0.02,0.02z"/>
    <path class="fil2" d="M5.71 3.07l0.38 0c0.01,0 0.02,-0.01 0.02,-0.02 0,-0.02 -0.01,-0.03 -0.02,-0.03l-0.38 0c-0.01,0 -0.02,0.01 -0.02,0.03 0,0.01 0.01,0.02 0.02,0.02z"/>
    <path class="fil2" d="M5.89 2.89l0.2 0c0.01,0 0.02,-0.01 0.02,-0.02 0,-0.02 -0.01,-0.03 -0.02,-0.03l-0.2 0c-0.01,0 -0.02,0.01 -0.02,0.03 0,0.01 0.01,0.02 0.02,0.02z"/>
    <path class="fil2" d="M5.79 2.84l-0.07 0c-0.01,0 -0.02,0.01 -0.02,0.02l0 0.09c0,0.01 0.01,0.02 0.02,0.02l0.07 0c0.01,0 0.02,-0.01 0.02,-0.02l0 -0.09c0,-0.01 -0.01,-0.02 -0.02,-0.02z"/>
   </g>
   <path class="fil2" d="M5.55 4.38l0.19 0c0.02,0 0.03,-0.01 0.03,-0.02 0,-0.01 -0.01,-0.02 -0.03,-0.02l-0.19 0c-0.01,0 -0.02,0.01 -0.02,0.02 0,0.01 0.01,0.02 0.02,0.02zm-0.26 -0.19l0.54 0 0 0.34 -0.54 0 0 -0.34zm0.31 0.45l-0.09 0c-0.01,0 -0.03,-0.01 -0.03,-0.03 0,-0.01 0.02,-0.02 0.03,-0.02l0.09 0c0.02,0 0.03,0.01 0.03,0.02 0,0.02 -0.01,0.03 -0.03,0.03zm0.34 -0.07l0 0 -0.04 -0.01 0 -0.4c0,-0.02 -0.02,-0.04 -0.04,-0.04l-0.61 0c-0.02,0 -0.03,0.02 -0.03,0.04l0 0.4 -0.04 0.01 0 0c-0.02,0.01 -0.03,0.02 -0.03,0.04l0 0.05c0,0.02 0.02,0.04 0.04,0.04l0.73 0c0.02,0 0.04,-0.02 0.04,-0.04l0 -0.05c0,-0.02 -0.01,-0.03 -0.02,-0.04zm-0.57 -0.1l0.37 0c0.02,0 0.03,-0.01 0.03,-0.02 0,-0.01 -0.01,-0.02 -0.03,-0.02l-0.37 0c-0.01,0 -0.02,0.01 -0.02,0.02 0,0.01 0.01,0.02 0.02,0.02zm0.18 -0.18l0.19 0c0.02,0 0.03,-0.01 0.03,-0.02 0,-0.01 -0.01,-0.02 -0.03,-0.02l-0.19 0c-0.01,0 -0.02,0.01 -0.02,0.02 0,0.01 0.01,0.02 0.02,0.02zm-0.1 -0.05l-0.07 0c-0.01,0 -0.02,0.01 -0.02,0.02l0 0.09c0,0.01 0.01,0.02 0.02,0.02l0.07 0c0.01,0 0.02,-0.01 0.02,-0.02l0 -0.09c0,-0.01 -0.01,-0.02 -0.02,-0.02z"/>
   <g>
    <path class="fil2" d="M4.95 5.18c-0.23,0 -0.46,0 -0.69,0 -0.02,0 -0.03,0.01 -0.03,0.03l0 0.45c0,0.02 0.01,0.04 0.03,0.04l0.27 0 -0.01 0.08 -0.07 0c-0.01,0 -0.02,0.01 -0.02,0.03 0,0.01 0.01,0.02 0.02,0.02l0.31 0c0.01,0 0.02,-0.01 0.02,-0.02 0,-0.02 -0.01,-0.03 -0.02,-0.03l-0.07 0 -0.01 -0.08 0.27 0c0.02,0 0.03,-0.02 0.03,-0.04l0 -0.45c0,-0.02 -0.01,-0.03 -0.03,-0.03zm-0.04 0.07l0 0.32 -0.61 0 0 -0.32c0.2,0 0.41,0 0.61,0zm-0.3 0.42c-0.02,0 -0.03,-0.01 -0.03,-0.03 0,-0.01 0.01,-0.02 0.03,-0.02 0.01,0 0.02,0.01 0.02,0.02 0,0.02 -0.01,0.03 -0.02,0.03z"/>
    <path class="fil2" d="M4.6 5.44l0.19 0c0.02,0 0.03,-0.01 0.03,-0.03 0,-0.01 -0.01,-0.02 -0.03,-0.02l-0.19 0c-0.02,0 -0.03,0.01 -0.03,0.02 0,0.02 0.01,0.03 0.03,0.03z"/>
    <path class="fil2" d="M4.42 5.53l0.37 0c0.02,0 0.03,-0.01 0.03,-0.03 0,-0.01 -0.01,-0.02 -0.03,-0.02l-0.37 0c-0.02,0 -0.03,0.01 -0.03,0.02 0,0.02 0.01,0.03 0.03,0.03z"/>
    <path class="fil2" d="M4.6 5.35l0.19 0c0.02,0 0.03,-0.01 0.03,-0.02 0,-0.02 -0.01,-0.03 -0.03,-0.03l-0.19 0c-0.02,0 -0.03,0.01 -0.03,0.03 0,0.01 0.01,0.02 0.03,0.02z"/>
    <path class="fil2" d="M4.5 5.3l-0.07 0c-0.01,0 -0.02,0.01 -0.02,0.02l0 0.09c0,0.01 0.01,0.01 0.02,0.01l0.07 0c0.01,0 0.02,0 0.02,-0.01l0 -0.09c0,-0.01 -0.01,-0.02 -0.02,-0.02z"/>
   </g>
  </g>
 </g>
</svg>
