<?xml version="1.0" encoding="UTF-8"?>
<!DOCTYPE svg PUBLIC "-//W3C//DTD SVG 1.1//EN" "http://www.w3.org/Graphics/SVG/1.1/DTD/svg11.dtd">
<!-- Creator: CorelDRAW -->
<svg xmlns="http://www.w3.org/2000/svg" xml:space="preserve" width="112px" height="97px" version="1.1" style="shape-rendering:geometricPrecision; text-rendering:geometricPrecision; image-rendering:optimizeQuality; fill-rule:evenodd; clip-rule:evenodd"
viewBox="0 0 7.65 6.64"
 xmlns:xlink="http://www.w3.org/1999/xlink"
 xmlns:xodm="http://www.corel.com/coreldraw/odm/2003">
 <defs>
  <style type="text/css">
   <![CDATA[
    .fil2 {fill:url(#id0)}
    .fil1 {fill:url(#id1)}
    .fil4 {fill:url(#id2)}
    .fil7 {fill:url(#id3);fill-rule:nonzero}
    .fil6 {fill:url(#id4);fill-rule:nonzero}
    .fil0 {fill:url(#id5);fill-rule:nonzero}
    .fil3 {fill:url(#id6);fill-rule:nonzero}
    .fil5 {fill:url(#id7);fill-rule:nonzero}
   ]]>
  </style>
  <linearGradient id="id0" gradientUnits="userSpaceOnUse" x1="5.91" y1="2.37" x2="5.91" y2="2.37">
   <stop offset="0" style="stop-opacity:1; stop-color:#50A338"/>
   <stop offset="1" style="stop-opacity:1; stop-color:#3F7E2F"/>
  </linearGradient>
  <linearGradient id="id1" gradientUnits="userSpaceOnUse" xlink:href="#id0" x1="5.91" y1="2.36" x2="5.91" y2="2.36">
  </linearGradient>
  <linearGradient id="id2" gradientUnits="userSpaceOnUse" xlink:href="#id0" x1="3.87" y1="0.57" x2="5.58" y2="3.44">
  </linearGradient>
  <linearGradient id="id3" gradientUnits="userSpaceOnUse" x1="3.51" y1="6.37" x2="3.51" y2="6.63">
   <stop offset="0" style="stop-opacity:1; stop-color:#50A338"/>
   <stop offset="1" style="stop-opacity:1; stop-color:#008557"/>
  </linearGradient>
  <linearGradient id="id4" gradientUnits="userSpaceOnUse" x1="4.24" y1="5.54" x2="4.24" y2="6.12">
   <stop offset="0" style="stop-opacity:1; stop-color:#E31F25"/>
   <stop offset="1" style="stop-opacity:1; stop-color:#C03629"/>
  </linearGradient>
  <linearGradient id="id5" gradientUnits="userSpaceOnUse" xlink:href="#id4" x1="3.21" y1="4.13" x2="4.85" y2="4.25">
  </linearGradient>
  <linearGradient id="id6" gradientUnits="userSpaceOnUse" xlink:href="#id4" x1="3.53" y1="1.78" x2="2.52" y2="4.38">
  </linearGradient>
  <linearGradient id="id7" gradientUnits="userSpaceOnUse" xlink:href="#id4" x1="4.45" y1="4.69" x2="4.45" y2="5.27">
  </linearGradient>
 </defs>
 <g id="Vrstva_x0020_1">
  <metadata id="CorelCorpID_0Corel-Layer"/>
  <g id="_105555565675904">
   <path class="fil0" d="M3.23 4.06c0,0 0.01,0 0.02,0l1.25 0c0.01,0 0.02,0 0.02,0 0.01,0.01 0.01,0.01 0.01,0.02l0 0.08 0.13 0 0 0.08 0.18 0 0 0.08 -1.93 0 0 -0.08 0.18 0 0 -0.08 0.13 0 0 -0.08c0,-0.01 0,-0.01 0.01,-0.02z"/>
   <path class="fil1" d="M5.91 2.36c0,0 0,-0.01 0,-0.01z"/>
   <path class="fil2" d="M5.91 2.38c0,0 0,-0.01 0,-0.01z"/>
   <path class="fil3" d="M3.69 2.92c0.01,-0.02 0.01,-0.04 -0.01,-0.05l-0.12 -0.1c-0.01,-0.02 -0.03,-0.02 -0.04,0l-1.05 1.2 -0.17 0.18c-0.01,0.01 -0.01,0.02 -0.01,0.03l0 0 0 0 0 0 0 0 0 0 0 0 0 0 0 0 0 0 0 0 0 0 0 0 0 0 0 0 0 0 0 0 0 0 0 0 0 0 0 0 0 0 0 0 0 0 0 0 0 0 0 0 0 0 0 0 0 0 0 0 0 0 0 0 0 0 0 0 0 0 0 0 0 0 0 0 0 0 0 0 0 0 0 0 0 0 0 0 0 0 0 0 0 0 0 0 0 0 0 0 0 0 0 0 0 0 0 0 0 0.01 0 0 0 0 0 0 0 0 0 0 0 0 0 0 0 0 0 0 0 0 0 0 0 0 0 0 0 0 0 0 0 0 0 0 0 0 0 0 0 0 0 0 0 0 0 0 0 0 0 0 0 0 0 0 0 0 0 0 0 0 0 0 0 0 0 0 0 0 0 0 0 0 0 0 0 0 0 0 0 0 0 0 0 0 0 0 0 0 0 0 0 0 0 0 0 0 0 0 0 0 0 0 0 0 0 0 0 0 0 0 0 0 0 0 0 0 0 0 0 0 0 0 0 0 0 0 0 0 0 0 0 0 0.01 0.01 0 0 0 0 0 0 0 0 0 0 0 0 0 0 0 0 0 0 0 0 0 0 0 0 0 0 0 0 0 0 0 0 0 0 0 0 0 0 0 0 0 0 0 0 0 0 0 0 0 0 0 0 0 0 0 0 0 0 0 0 0 0 0 0 0 0 0 0 0 0 0 0 0.01 0 0 0 0 0 0 0 0 0 0 0 0 0 0 0 0 0.01 0 0 0 0 0 0 0 0 0 0 0 0 0 0 0 0 0 0 0 0 0 0 0 0 0 0 0 0 0 0 0 0 0 0 0 0 0 0 0 0 0 0 0 0 0 0 0 0 0.01 0 0 0 0 0 0 0 0 0 0 0 0 0 0 0 0 0 0 0.01 0 0 0 0 0 0 0 0 0 0 0 0 0 0 0 0 0 0 0 0 0 0 0 0 0 0 0 0 0 0 0 0 0 0 0 0 0.01 0 0 0 0 0 0 0 0 0 0 0 0 0 0 0 0 0 0 0 0 0 0 0 0 0 0 0.01 0 0 0 0 0 0 0 0 0 0 0 0 0 0 0.01 0 0 0 0 0 0 0.01 0 0 0 0 0 0 0 0 0 0 0 0 0 0 0 0 0 0 0 0 0 0 0 0 0 0 0 0 0.01 0 0 0 0 0 0 0 0 0 0 0 0 0 0 0 0 0 0 0 0 0 0 0 0 0 0 0 0 0 0 0 0 0 0 0 0 0 0 0 0 0 0 0 0 0 0 0 0 0 0 0 0 0 0 0.01 0 0 0 0 0 0 0 0 0 0 0 0 0 0 0 0 0 0 0.01 0 0 0 0 0 0 0 0 0 0 0 0 0 0 0 0 0 0 0 0 0 0 0 0 0 0 0 0 0 0 0 0 0 0 0 0 0 0 0 0 0 0 0 0 0 0 0c0.05,0.05 0.11,0.09 0.16,0.13l0 0c0.01,0 0.01,0 0.01,0.01l1.16 -1.47zm-0.16 -1.14l-0.42 0.48c-0.05,0.06 -0.04,0.15 0.02,0.2 0.05,0.05 0.14,0.04 0.19,-0.02l0.01 0 0.69 0.6 -0.01 0.01c-0.05,0.06 -0.04,0.14 0.02,0.19 0.05,0.05 0.14,0.05 0.19,-0.01l0.42 -0.48c0.05,-0.06 0.04,-0.14 -0.01,-0.19 -0.06,-0.05 -0.13,-0.05 -0.18,0l-0.7 -0.61c0.04,-0.06 0.03,-0.13 -0.02,-0.18 -0.06,-0.05 -0.15,-0.04 -0.2,0.01z"/>
   <path class="fil4" d="M3.87 0c1.29,0 2.33,1.04 2.33,2.33 0,0.01 0,0.01 0,0.02l0 0c0,0.01 0,0.02 0,0.03l0 0c0,0.01 0,0.02 0,0.03l0 0c0,0.01 0,0.02 0,0.02l0 0.01c0,0 0,0.01 0,0.02l0 0.01c0,0 0,0.01 0,0.01 0,0.01 -0.01,0.01 -0.01,0.02l0 0.01c-0.04,0.51 -0.24,0.98 -0.56,1.34l-0.2 -0.21 -0.44 -0.48c0,-0.01 -0.01,-0.01 -0.01,-0.02l0 0c0,0 0,0 0,0l0 -0.8c0.09,0.08 0.22,0.08 0.3,0l-0.3 -0.3 0 0 -0.4 -0.4 0 -0.32 -0.18 0 0 0.13 -0.27 -0.26 -0.26 -0.26 -0.26 0.26 0 0 -0.84 0.85 -0.31 0.3c0.09,0.08 0.22,0.08 0.31,0l0 0.8c0,0 0,0 0,0l0 0c0,0.01 -0.01,0.01 -0.01,0.02l-0.44 0.48 -0.2 0.21c-0.36,-0.41 -0.57,-0.94 -0.57,-1.52 0,-1.29 1.04,-2.33 2.32,-2.33z"/>
   <path class="fil5" d="M0.17 5.27l0.16 0 0 -0.44 0.17 0 0 -0.14 -0.5 0 0 0.14 0.17 0 0 0.44zm0.4 0l0.47 0 0 -0.14 -0.31 0 0 -0.09 0.28 0 0 -0.12 -0.28 0 0 -0.09 0.31 0 0 -0.14 -0.47 0 0 0.58zm0.55 0l0.44 0 0 -0.14 -0.28 0 0 -0.44 -0.16 0 0 0.58zm0.51 0l0.46 0 0 -0.14 -0.31 0 0 -0.09 0.28 0 0 -0.12 -0.28 0 0 -0.09 0.31 0 0 -0.14 -0.46 0 0 0.58zm0.73 0l0.15 0 0.23 -0.58 -0.17 0 -0.13 0.37 -0.13 -0.37 -0.18 0 0.23 0.58zm0.44 0l0.16 0 0 -0.58 -0.16 0 0 0.58zm0.25 0l0.51 0 0 -0.14 -0.29 0 0.29 -0.32 0 -0.12 -0.5 0 0 0.14 0.28 0 -0.29 0.32 0 0.12zm0.59 0l0.16 0 0 -0.32 0.24 0.32 0.14 0 0 -0.58 -0.15 0 0 0.31 -0.24 -0.31 -0.15 0 0 0.58zm0.65 0l0.16 0 0 -0.58 -0.16 0 0 0.58zm0.02 -0.61l0.11 0 0.12 -0.09 -0.14 -0.05 -0.09 0.14zm0.42 0.61l0.17 0 0.04 -0.1 0.22 0 0.05 0.1 0.17 0 -0.25 -0.58 -0.15 0 -0.25 0.58zm0.26 -0.23l0.06 -0.16 0.07 0.16 -0.13 0zm0.68 0.24c0.16,0 0.27,-0.08 0.27,-0.27l0 -0.32 -0.16 0 0 0.33c0,0.08 -0.05,0.12 -0.11,0.12 -0.06,0 -0.11,-0.04 -0.11,-0.13l0 -0.32 -0.16 0 0 0.33c0,0.18 0.11,0.26 0.27,0.26zm0.36 -0.01l0.16 0 0 -0.15 0.06 -0.06 0.14 0.21 0.2 0 -0.23 -0.33 0.22 -0.25 -0.19 0 -0.2 0.24 0 -0.24 -0.16 0 0 0.58zm0.83 0.01c0.13,0 0.2,-0.05 0.26,-0.13l-0.12 -0.08c-0.04,0.04 -0.07,0.07 -0.13,0.07 -0.08,0 -0.14,-0.07 -0.14,-0.16l0 0c0,-0.08 0.06,-0.15 0.14,-0.15 0.05,0 0.09,0.02 0.12,0.07l0.12 -0.1c-0.05,-0.07 -0.12,-0.12 -0.24,-0.12 -0.17,0 -0.3,0.13 -0.3,0.3l0 0c0,0.18 0.13,0.3 0.29,0.3zm0.33 -0.01l0.46 0 0 -0.14 -0.31 0 0 -0.09 0.28 0 0 -0.12 -0.28 0 0 -0.09 0.31 0 0 -0.14 -0.46 0 0 0.58z"/>
   <path class="fil6" d="M0.9 6.12l0.16 0 0 -0.32 0.24 0.32 0.14 0 0 -0.58 -0.16 0 0 0.3 -0.23 -0.3 -0.15 0 0 0.58zm0.64 0l0.47 0 0 -0.14 -0.31 0 0 -0.09 0.28 0 0 -0.13 -0.28 0 0 -0.08 0.31 0 0 -0.14 -0.47 0 0 0.58zm0.55 0l0.16 0 0 -0.33 0.14 0.22 0.01 0 0.14 -0.22 0 0.33 0.16 0 0 -0.58 -0.17 0 -0.13 0.22 -0.14 -0.22 -0.17 0 0 0.58zm1 0.01c0.18,0 0.31,-0.14 0.31,-0.3l0 0c0,-0.17 -0.13,-0.3 -0.31,-0.3 -0.17,0 -0.31,0.13 -0.31,0.3l0 0c0,0.17 0.14,0.3 0.31,0.3zm0 -0.15c-0.08,0 -0.14,-0.07 -0.14,-0.15l0 0c0,-0.09 0.06,-0.16 0.14,-0.16 0.09,0 0.15,0.08 0.15,0.16l0 0c0,0.08 -0.06,0.15 -0.15,0.15zm0.55 0.14l0.14 0 0.24 -0.58 -0.18 0 -0.13 0.36 -0.13 -0.36 -0.18 0 0.24 0.58zm0.44 0l0.16 0 0 -0.58 -0.16 0 0 0.58zm0.4 0l0.16 0 0 -0.44 0.17 0 0 -0.14 -0.5 0 0 0.14 0.17 0 0 0.44zm0.67 0.01c0.18,0 0.31,-0.14 0.31,-0.3l0 0c0,-0.17 -0.13,-0.3 -0.31,-0.3 -0.18,0 -0.31,0.13 -0.31,0.3l0 0c0,0.17 0.13,0.3 0.31,0.3zm0 -0.15c-0.09,0 -0.15,-0.07 -0.15,-0.15l0 0c0,-0.09 0.06,-0.16 0.15,-0.16 0.09,0 0.15,0.08 0.15,0.16l0 0c0,0.08 -0.06,0.15 -0.15,0.15zm0.61 0.15c0.14,0 0.24,-0.07 0.24,-0.19l0 0c0,-0.11 -0.09,-0.15 -0.22,-0.18 -0.08,-0.02 -0.1,-0.03 -0.1,-0.06l0 0c0,-0.02 0.02,-0.04 0.06,-0.04 0.05,0 0.11,0.02 0.16,0.06l0.08 -0.11c-0.06,-0.05 -0.14,-0.08 -0.24,-0.08 -0.13,0 -0.22,0.08 -0.22,0.19l0 0c0,0.12 0.1,0.15 0.22,0.18 0.08,0.02 0.09,0.03 0.09,0.05l0 0c0,0.03 -0.02,0.04 -0.06,0.04 -0.07,0 -0.13,-0.02 -0.19,-0.07l-0.09 0.11c0.07,0.06 0.17,0.1 0.27,0.1zm0.44 -0.01l0.16 0 0 -0.44 0.17 0 0 -0.14 -0.51 0 0 0.14 0.18 0 0 0.44zm0.4 0l0.16 0 0 -0.58 -0.16 0 0 0.58zm0.02 -0.62l0.12 0 0.12 -0.09 -0.15 -0.04 -0.09 0.13z"/>
   <path class="fil7" d="M1.12 6.63l0.05 0 0 -0.08 0.05 0c0.06,0 0.11,-0.03 0.11,-0.09l0 0c0,-0.05 -0.04,-0.09 -0.1,-0.09l-0.11 0 0 0.26zm0.05 -0.12l0 -0.1 0.05 0c0.04,0 0.06,0.02 0.06,0.05l0 0c0,0.03 -0.02,0.05 -0.06,0.05l-0.05 0zm0.2 0.12l0.05 0 0 -0.09 0.06 0 0.06 0.09 0.06 0 -0.07 -0.1c0.03,-0.01 0.06,-0.03 0.06,-0.07l0 -0.01c0,-0.02 -0.01,-0.04 -0.02,-0.05 -0.02,-0.02 -0.05,-0.03 -0.08,-0.03l-0.12 0 0 0.26zm0.05 -0.13l0 -0.09 0.07 0c0.03,0 0.05,0.02 0.05,0.05l0 0c0,0.02 -0.02,0.04 -0.05,0.04l-0.07 0zm0.35 0.14c0.08,0 0.14,-0.06 0.14,-0.14l0 0c0,-0.07 -0.06,-0.13 -0.14,-0.13 -0.08,0 -0.14,0.06 -0.14,0.13l0 0c0,0.08 0.06,0.14 0.14,0.14zm0 -0.04c-0.05,0 -0.09,-0.05 -0.09,-0.1l0 0c0,-0.05 0.04,-0.09 0.09,-0.09 0.05,0 0.09,0.04 0.09,0.09l0 0c0,0.05 -0.04,0.1 -0.09,0.1zm0.19 0.03l0.1 0c0.08,0 0.14,-0.05 0.14,-0.13l0 0c0,-0.07 -0.06,-0.13 -0.14,-0.13l-0.1 0 0 0.26zm0.05 -0.04l0 -0.18 0.05 0c0.06,0 0.09,0.04 0.09,0.09l0 0c0,0.06 -0.03,0.09 -0.09,0.09l-0.05 0zm0.25 0.04l0.19 0 0 -0.04 -0.15 0 0 -0.07 0.14 0 0 -0.04 -0.14 0 0 -0.07 0.15 0 0 -0.04 -0.19 0 0 0.26zm0.31 0.01c0.02,0 0.05,-0.01 0.06,-0.03 0.02,-0.01 0.03,-0.03 0.03,-0.06l0 -0.18 -0.05 0 0 0.17c0,0.04 -0.02,0.06 -0.04,0.06 -0.02,0 -0.04,-0.02 -0.06,-0.04l-0.03 0.04c0.02,0.02 0.05,0.04 0.09,0.04zm0.25 -0.01l0.22 0 0 -0.04 -0.16 0 0.16 -0.18 0 -0.04 -0.21 0 0 0.04 0.15 0 -0.16 0.19 0 0.03zm0.25 0l0.05 0 0.03 -0.06 0.12 0 0.03 0.06 0.05 0 -0.12 -0.26 -0.04 0 -0.12 0.26zm0.09 -0.1l0.05 -0.11 0.05 0.11 -0.1 0zm0.35 0.1l0.04 0 0 -0.18 0.15 0.18 0.03 0 0 -0.26 -0.04 0 0 0.18 -0.14 -0.18 -0.04 0 0 0.26zm0.29 0l0.2 0 0 -0.04 -0.15 0 0 -0.07 0.13 0 0 -0.04 -0.13 0 0 -0.07 0.15 0 0 -0.04 -0.2 0 0 0.26zm0.31 0.01c0.03,0 0.05,-0.01 0.07,-0.03 0.01,-0.01 0.02,-0.03 0.02,-0.06l0 -0.18 -0.05 0 0 0.17c0,0.04 -0.01,0.06 -0.04,0.06 -0.02,0 -0.04,-0.02 -0.05,-0.04l-0.03 0.04c0.02,0.02 0.04,0.04 0.08,0.04zm0.24 0l0.04 0 0.11 -0.27 -0.05 0 -0.08 0.2 -0.08 -0.2 -0.05 0 0.11 0.27zm0.27 -0.01l0.04 0 0 -0.1 0.11 -0.16 -0.06 0 -0.07 0.12 -0.07 -0.12 -0.06 0 0.11 0.16 0 0.1zm0.27 0.01c0.05,0 0.09,-0.03 0.09,-0.08l0 0c0,-0.04 -0.03,-0.06 -0.08,-0.08 -0.06,-0.01 -0.07,-0.02 -0.07,-0.04l0 0c0,-0.02 0.02,-0.03 0.05,-0.03 0.02,0 0.04,0.01 0.07,0.03l0.02 -0.04c-0.02,-0.02 -0.06,-0.03 -0.09,-0.03 -0.06,0 -0.09,0.03 -0.09,0.07l0 0c0,0.05 0.03,0.07 0.08,0.08 0.05,0.01 0.06,0.02 0.06,0.04l0 0c0,0.02 -0.01,0.04 -0.04,0.04 -0.04,0 -0.06,-0.02 -0.09,-0.04l-0.02 0.04c0.03,0.02 0.07,0.04 0.11,0.04zm0.06 -0.34l-0.04 0 -0.03 0.02 -0.03 -0.02 -0.03 0 0.04 0.05 0.04 0 0.05 -0.05zm0.17 0.34c0.06,0 0.1,-0.03 0.1,-0.08l0 0c0,-0.04 -0.03,-0.06 -0.09,-0.08 -0.05,-0.01 -0.06,-0.02 -0.06,-0.04l0 0c0,-0.02 0.02,-0.03 0.04,-0.03 0.03,0 0.05,0.01 0.07,0.03l0.03 -0.04c-0.03,-0.02 -0.06,-0.03 -0.1,-0.03 -0.05,0 -0.09,0.03 -0.09,0.07l0 0c0,0.05 0.03,0.07 0.09,0.08 0.05,0.01 0.06,0.02 0.06,0.04l0 0c0,0.02 -0.02,0.04 -0.05,0.04 -0.03,0 -0.05,-0.02 -0.08,-0.04l-0.03 0.04c0.03,0.02 0.07,0.04 0.11,0.04zm0.07 -0.34l-0.04 0 -0.03 0.02 -0.03 -0.02 -0.04 0 0.05 0.05 0.04 0 0.05 -0.05zm0.08 0.33l0.05 0 0 -0.26 -0.05 0 0 0.26zm0.01 -0.28l0.03 0 0.05 -0.04 -0.04 -0.01 -0.04 0.05zm0.34 0.29c0.05,0 0.08,-0.02 0.11,-0.05l-0.03 -0.03c-0.02,0.02 -0.04,0.04 -0.07,0.04 -0.05,0 -0.09,-0.05 -0.09,-0.1l0 0c0,-0.05 0.04,-0.09 0.09,-0.09 0.03,0 0.05,0.01 0.07,0.03l0.03 -0.03c-0.03,-0.03 -0.06,-0.04 -0.1,-0.04 -0.08,0 -0.14,0.06 -0.14,0.13l0 0c0,0.08 0.06,0.14 0.13,0.14zm0.16 -0.01l0.2 0 0 -0.04 -0.15 0 0 -0.07 0.13 0 0 -0.04 -0.13 0 0 -0.07 0.14 0 0 -0.04 -0.19 0 0 0.26zm0.25 0l0.05 0 0 -0.18 0.14 0.18 0.04 0 0 -0.26 -0.05 0 0 0.18 -0.14 -0.18 -0.04 0 0 0.26zm0.41 0.01c0.06,0 0.11,-0.04 0.11,-0.12l0 -0.15 -0.05 0 0 0.15c0,0.05 -0.02,0.08 -0.06,0.08 -0.04,0 -0.07,-0.03 -0.07,-0.08l0 -0.15 -0.05 0 0 0.15c0,0.08 0.05,0.12 0.12,0.12z"/>
  </g>
 </g>
</svg>
