<?xml version="1.0" encoding="UTF-8"?>
<!DOCTYPE svg PUBLIC "-//W3C//DTD SVG 1.1//EN" "http://www.w3.org/Graphics/SVG/1.1/DTD/svg11.dtd">
<!-- Creator: CorelDRAW -->
<svg xmlns="http://www.w3.org/2000/svg" xml:space="preserve" width="108px" height="126px" version="1.1" style="shape-rendering:geometricPrecision; text-rendering:geometricPrecision; image-rendering:optimizeQuality; fill-rule:evenodd; clip-rule:evenodd"
viewBox="0 0 108.62 126.22"
 xmlns:xlink="http://www.w3.org/1999/xlink"
 xmlns:xodm="http://www.corel.com/coreldraw/odm/2003">
 <defs>
  <style type="text/css">
   <![CDATA[
    .fil0 {fill:#FFE900}
    .fil2 {fill:#E31F25}
    .fil1 {fill:#3B5998}
   ]]>
  </style>
 </defs>
 <g id="Vrstva_x0020_1">
  <metadata id="CorelCorpID_0Corel-Layer"/>
  <g id="_105555832435008">
   <g>
    <path class="fil0" d="M67.52 40.96c-2.08,0 -3.24,-0.08 -5.22,-0.57l-1.83 -0.55c-0.63,-0.21 -1.12,-0.43 -1.71,-0.68 -0.6,-0.24 -1.03,-0.51 -1.58,-0.79l-3.18 -2.15c-0.16,-0.12 -0.19,-0.17 -0.34,-0.29l-1.25 -1.14c-0.14,-0.15 -0.18,-0.15 -0.3,-0.26 -0.83,-0.83 -2.32,-2.62 -2.93,-3.65 -0.92,-1.57 -1.22,-1.97 -1.91,-4.04 -1.1,-3.28 -0.81,-6.74 0.59,-9.75 0.6,-1.29 1.85,-3.05 2.86,-4.06l4.24 -3.47c0.2,-0.13 0.34,-0.21 0.53,-0.33 0.19,-0.12 0.33,-0.2 0.53,-0.32 1.96,-1.17 4.26,-2.23 6.4,-3.07l1.28 -0.48c0.24,-0.07 0.38,-0.15 0.61,-0.23 1.47,-0.57 4.44,-1.37 6.01,-1.76 1.63,-0.41 5.89,-1.2 7.41,-1.22 0.49,-0.01 1.09,-0.11 1.58,-0.11 0.65,0 1.08,-0.06 1.71,-0.06 1.74,0 3.67,0.2 5.36,0.54 1.35,0.26 2.18,0.6 3.33,1.09 0.17,0.07 0.35,0.16 0.49,0.25 1.07,0.62 2.11,1.35 2.87,2.35 2.57,3.43 1.97,7.78 0.7,11.59 -0.73,2.22 -1.24,3.04 -2.15,4.89l-0.62 1.13c-0.77,1.27 -1.15,1.9 -2.06,3.21 -1.01,1.45 -1.99,2.63 -3.12,3.98l-0.62 0.68c-0.08,0.09 -0.14,0.15 -0.23,0.23 -0.38,0.39 -1.08,1.19 -1.5,1.56l-1.16 1.05c-0.36,0.37 -1.52,1.27 -1.92,1.6 -0.58,0.46 -1.49,1.04 -2.12,1.46 -0.53,0.35 -2.18,1.26 -2.83,1.53 -2.53,1.05 -5.1,1.84 -7.92,1.84zm35.11 -29.22c0,-3.52 -1.29,-5.89 -3.65,-7.81 -0.36,-0.29 -0.73,-0.56 -1.14,-0.8 -1.69,-1 -3.55,-1.73 -5.47,-2.18l-1.59 -0.34c-0.51,-0.1 -1.07,-0.16 -1.63,-0.24 -0.54,-0.08 -1.18,-0.18 -1.72,-0.2 -4.91,-0.24 -5.03,-0.25 -10.27,0.11 -0.88,0.06 -1.7,0.21 -2.55,0.28 -1.98,0.17 -6.53,1.01 -8.44,1.49l-2.27 0.57c-2.73,0.66 -7.13,2 -9.67,3.14l-1.99 0.85c-0.5,0.2 -0.93,0.47 -1.43,0.67 -0.53,0.22 -1.32,0.69 -1.85,0.98l-0.91 0.52c-0.18,0.11 -0.25,0.16 -0.45,0.28 -0.2,0.1 -0.29,0.2 -0.44,0.29 -0.18,0.11 -0.28,0.18 -0.45,0.3l-1.64 1.19c-0.57,0.42 -1.75,1.46 -2.21,2.04 -0.11,0.14 -0.21,0.22 -0.34,0.35 -0.85,0.86 -1.78,2.28 -2.32,3.35 -0.09,0.19 -0.13,0.32 -0.23,0.51 -1.02,2.04 -1.33,4.95 -0.86,7.24 0.23,1.13 0.56,2.2 1.02,3.24 0.64,1.43 1.49,2.73 2.42,3.98 0.12,0.17 0.19,0.25 0.32,0.42 1.3,1.65 3.38,3.63 5.08,4.85 1.99,1.42 4.05,2.69 6.3,3.68 2.82,1.24 5.75,2.03 8.88,2.46 1.71,0.23 3.71,0.3 5.41,0.21 0.4,-0.02 0.89,-0.09 1.3,-0.12 2.82,-0.19 5.54,-0.92 8.11,-1.87 0.32,-0.13 0.66,-0.27 1.01,-0.41l1.94 -0.89c0.16,-0.08 0.31,-0.15 0.46,-0.23l1.39 -0.76c0.91,-0.54 1.78,-1.07 2.63,-1.68l2.82 -2.12c0.99,-0.78 1.9,-1.65 2.83,-2.5 0.68,-0.62 1.3,-1.31 1.94,-1.97l2.67 -3.06c0.81,-1.09 1.64,-2.16 2.39,-3.28 0.38,-0.57 0.73,-1.15 1.09,-1.75l0.77 -1.39c0.06,-0.12 0.07,-0.12 0.12,-0.22 0.05,-0.12 0.06,-0.17 0.12,-0.27 0.18,-0.31 0.3,-0.61 0.47,-0.95 0.84,-1.66 1.4,-3.5 1.77,-5.33 0.15,-0.75 0.26,-1.77 0.26,-2.63z"/>
    <path class="fil1" d="M56.06 17.47c0,1 0.3,1.8 0.98,2.48 0.61,0.62 1.44,0.98 2.48,0.98 0.58,0 1.22,-0.36 1.71,-0.56 0.2,-0.08 0.39,-0.14 0.56,-0.23l0 13.04c0,1.1 -0.02,1.5 0.3,2.31 0.93,2.35 3.8,3.05 5.43,1.09 0.53,-0.64 0.96,-1.38 0.96,-2.54l0 -17.08c0,-1.69 -0.12,-2.46 -0.85,-3.46 -0.6,-0.85 -1.87,-1.48 -2.89,-1.48 -0.91,0 -1.81,0.55 -2.64,0.88l-1.83 0.78c-0.22,0.08 -0.42,0.18 -0.63,0.27 -0.8,0.36 -1.69,0.61 -2.41,1.11 -0.6,0.41 -1.17,1.41 -1.17,2.41z"/>
    <path class="fil1" d="M35.53 44.93l0 16.56c0,1.01 1.68,1.89 2.62,0.64 0.3,-0.4 0.27,-0.82 0.27,-1.49 0,-1.15 0,-2.31 0,-3.46 0.24,-0.06 1.08,-0.89 1.37,-1.08 0.08,0.17 0.15,0.25 0.24,0.44 0.72,1.41 1.7,3.05 2.42,4.44 0.55,1.05 0.77,1.76 1.93,1.76 0.34,0 0.74,-0.2 0.92,-0.38 0.96,-0.96 -0.11,-2.2 -0.66,-3.29l-2.13 -3.93c-0.09,-0.16 -0.42,-0.77 -0.45,-0.91l2.73 -2.26c0.45,-0.37 1,-0.78 0.73,-1.54 -0.19,-0.53 -0.73,-1.08 -1.42,-1.08 -0.71,0 -1.17,0.53 -1.58,0.86l-1.03 0.85c-0.12,0.1 -0.22,0.18 -0.34,0.28 -0.48,0.37 -2.41,2.05 -2.73,2.21 0,-1.89 0,-3.78 0,-5.67 0,-0.87 0.07,-2.01 0,-2.84 -0.09,-1.19 -1.51,-1.81 -2.45,-0.98 -0.19,0.17 -0.44,0.52 -0.44,0.87z"/>
    <path class="fil1" d="M25.78 53.95c0,-1.81 2.58,-2.43 3.76,-1.38 0.58,0.53 0.66,0.92 0.66,1.66l-4.42 0 0 -0.28zm-2.9 1.13c0,2.06 -0.18,3.41 0.82,5.09 0.21,0.35 0.38,0.52 0.6,0.81 0.82,1.07 2.53,1.7 4.03,1.7 0.5,0 1.19,-0.16 1.58,-0.29 0.87,-0.29 1.71,-0.85 2.26,-1.59 0.51,-0.69 1.01,-1.6 0.2,-2.27 -0.59,-0.48 -1.31,-0.6 -1.95,-0.11 -0.35,0.27 -0.39,0.97 -1.25,1.31 -0.92,0.36 -1.91,0.31 -2.64,-0.29 -0.28,-0.22 -0.33,-0.24 -0.51,-0.57 -0.33,-0.63 -0.24,-0.97 -0.24,-1.8l5.44 0c1.03,0 1.87,-0.55 1.87,-1.48 0,-1.49 0.02,-2.23 -0.62,-3.63 -0.48,-1.03 -1.36,-1.75 -2.34,-2.25 -1.11,-0.56 -2.66,-0.6 -3.86,-0.15 -2.35,0.9 -3.39,3.11 -3.39,5.52z"/>
    <path class="fil1" d="M97.64 53.95c0,-2.47 4.42,-2.52 4.42,0l0 0.28 -4.42 0 0 -0.28zm-2.9 1.42c0,1.46 -0.09,2.54 0.36,3.89 0.28,0.83 0.65,1.19 1.06,1.72 0.79,1.04 2.49,1.7 3.97,1.7 1.44,0 3.06,-0.76 3.83,-1.79 0.61,-0.81 0.65,-0.93 0.65,-1.67 0,-0.82 -1.79,-1.79 -2.6,-0.45 -0.23,0.37 -0.34,0.69 -0.98,0.96 -1.65,0.7 -3.39,-0.35 -3.39,-1.7l0 -0.96 5.44 0c2.06,0 1.87,-1.46 1.87,-2.55 0,-1.15 -0.45,-2.46 -1.13,-3.35 -1.17,-1.52 -3.23,-2.26 -5.16,-1.76 -0.97,0.25 -2,0.85 -2.61,1.64 -0.23,0.3 -0.35,0.45 -0.55,0.82 -0.34,0.6 -0.64,1.4 -0.7,2.14 -0.03,0.49 -0.06,0.84 -0.06,1.36z"/>
    <path class="fil1" d="M60.94 54c0,-0.54 0.33,-1.14 0.65,-1.39 1.47,-1.17 3.78,-0.31 3.78,1.22l0 0.4 -4.43 0 0 -0.23zm-2.83 0.46l0 3.18c0,1.39 0.62,2.57 1.54,3.5 0.52,0.52 0.8,0.7 1.5,1.05 1.15,0.59 2.66,0.63 3.88,0.22 0.5,-0.17 0.88,-0.37 1.29,-0.64 0.9,-0.61 2.4,-2.25 1.19,-3.27 -0.72,-0.6 -1.71,-0.54 -2.2,0.27 -0.21,0.35 -0.21,0.58 -0.93,0.95 -1.3,0.65 -3.44,-0.09 -3.44,-1.74l0 -0.91 5.39 0c0.51,0 1.04,-0.08 1.32,-0.33 0.77,-0.68 0.61,-1.13 0.61,-2.28 0,-0.78 -0.23,-1.56 -0.45,-2.11 -0.33,-0.83 -0.92,-1.62 -1.65,-2.15 -0.27,-0.19 -0.5,-0.3 -0.83,-0.47 -1.25,-0.63 -2.96,-0.64 -4.2,-0.02 -0.6,0.3 -1.17,0.66 -1.61,1.17 -0.85,1.03 -1.41,2.12 -1.41,3.58z"/>
    <path class="fil1" d="M3.66 47.99l0 13.11c0,1.16 0.45,1.64 1.59,1.64 0.66,0 1.08,-0.35 1.24,-0.85 0.15,-0.45 0.06,-5.68 0.06,-6.41 0,-1.76 -0.17,-1.72 0.45,-1.71 0.72,0.02 1.44,0.01 2.16,0.01 0.9,0 2.16,0.25 2.66,-0.57 0.46,-0.74 0.35,-1.46 -0.3,-1.96 -0.41,-0.32 -0.89,-0.25 -1.57,-0.25l-2.66 0c-0.98,0 -0.74,0.48 -0.74,-3.29 0,-0.4 0.16,-0.73 0.35,-0.95 0.28,-0.31 0.59,-0.24 1.13,-0.24 0.81,0 4.85,0.05 5.31,-0.02 1.3,-0.21 1.7,-1.62 0.89,-2.44 -0.26,-0.26 -0.67,-0.38 -1.16,-0.38l-5.61 0c-0.76,0 -1.76,0.34 -2.26,0.75 -1.06,0.87 -1.54,1.78 -1.54,3.56z"/>
    <path class="fil1" d="M70.7 53.61l0 7.6c0,0.87 0.58,1.53 1.3,1.53 0.53,0 1.04,-0.05 1.36,-0.57 0.3,-0.48 0.23,-0.63 0.23,-1.36 0,-1.12 -0.1,-7.32 0.1,-7.95 0.15,-0.45 0.48,-0.67 0.98,-0.67l2.1 0c1.23,0 1.07,1.28 1.07,2.1l0 6.47c0,0.68 -0.07,0.92 0.22,1.37 0.66,1.07 2.68,0.74 2.68,-0.81l0 -7.94c0,-0.57 -0.14,-1.21 -0.3,-1.64 -0.5,-1.4 -1.92,-2.39 -3.45,-2.39 -1.36,0 -2.98,-0.15 -4.07,0.35 -0.91,0.42 -1.66,1.15 -1.96,2.13 -0.17,0.54 -0.26,1.09 -0.26,1.78z"/>
    <path class="fil1" d="M83.23 55.08c0,2.13 -0.16,4.32 1.43,5.89 1.1,1.08 2.23,1.71 3.96,1.71 1.5,0 3.07,-0.76 3.9,-1.88 0.54,-0.71 1,-1.6 0.17,-2.3 -0.72,-0.6 -1.71,-0.54 -2.2,0.27 -0.25,0.42 -0.29,0.63 -0.93,0.95 -1.3,0.65 -3.44,-0.09 -3.44,-1.74l0 -3.92c0,-0.67 0.25,-1.11 0.61,-1.43 1.03,-0.91 2.89,-0.78 3.52,0.13 0.16,0.23 0.29,0.54 0.48,0.72 0.63,0.63 1.91,0.36 2.27,-0.42 0.33,-0.7 -0.02,-1.35 -0.46,-1.9 -1.52,-1.89 -4.16,-2.43 -6.32,-1.43 -0.22,0.1 -0.27,0.09 -0.46,0.22 -0.16,0.11 -0.26,0.17 -0.41,0.28 -1.65,1.19 -2.12,2.83 -2.12,4.85z"/>
    <path class="fil1" d="M46.82 50.49c0,0.78 0.19,1.11 0.45,1.93l3.04 9.55c0.57,0.97 2.39,1.21 2.97,-0.31l1.17 -3.71c0.1,-0.34 0.16,-0.59 0.27,-0.92 0.6,-1.78 1.16,-3.78 1.76,-5.56 0.25,-0.72 0.33,-1.22 -0.26,-1.77 -0.5,-0.46 -1.51,-0.51 -2.07,0.06 -0.47,0.46 -0.86,2.29 -1.1,2.99 -0.23,0.67 -0.41,1.37 -0.65,2.07l-0.65 2.08c0,-0.01 -0.01,-0.05 -0.01,-0.04l-0.08 -0.21c-0.04,-0.13 -0.05,-0.14 -0.08,-0.26 -0.06,-0.16 -0.11,-0.33 -0.17,-0.51 -0.56,-1.65 -1.08,-3.52 -1.63,-5.17 -0.31,-0.93 -0.59,-1.36 -1.66,-1.36 -0.6,0 -1.3,0.53 -1.3,1.14z"/>
    <path class="fil1" d="M13.64 50.15l0 11.46c0,0.48 0.6,1.13 1.25,1.13l0.34 0c0.6,0 1.25,-0.58 1.25,-1.19l0 -9.36c1.23,0 1.77,-0.2 2.1,0.61 0.3,0.73 -0.22,1.34 0.55,2.07 0.66,0.65 2.45,0.63 2.45,-1.26 0,-1.62 -0.56,-3.1 -2.02,-3.82 -1.2,-0.6 -1.08,-0.27 -1.98,-0.4 -0.41,-0.07 -2.51,-0.04 -3.03,-0.04 -0.45,0 -0.91,0.38 -0.91,0.8z"/>
   </g>
   <g>
    <path class="fil1" d="M80.75 100.87l3.41 0 -0.04 -6.94c-0.41,0.01 -0.51,0.32 -0.64,0.62l-1.57 3.58c-0.17,0.4 -1.14,2.52 -1.16,2.74zm-40.03 -2.27c1.65,0 3.47,0.33 4.4,-0.91 0.42,-0.56 0.53,-1.15 0.65,-1.99 0.06,-0.4 0.12,-0.8 0.17,-1.17 0.07,-0.45 0.24,-0.96 -0.19,-0.96l-4.02 0 -1.01 5.03zm28.15 0l2.27 0c1.32,0 2.05,-0.56 2.43,-1.5 0.23,-0.57 0.41,-1.71 0.55,-2.42 0.09,-0.51 0.33,-1.11 -0.14,-1.11l-4.14 0c0,0.25 -0.05,0.4 -0.1,0.63l-0.76 3.74c-0.03,0.21 -0.11,0.44 -0.11,0.66zm-15.5 3.41c0,0.68 0.1,1.35 0.7,1.82 1.92,1.51 4.65,-0.28 5.08,-2.33 0.07,-0.31 0.1,-0.62 0.15,-0.91l0.6 -3.7c0.08,-0.61 0.26,-1.19 -0.06,-1.88 -0.16,-0.32 -0.21,-0.4 -0.45,-0.64 -1.52,-1.52 -4.6,-0.14 -5.13,2.15 -0.1,0.4 -0.16,0.95 -0.22,1.36 -0.08,0.44 -0.67,3.85 -0.67,4.13zm24.3 5.51l-3.41 0c0.02,-0.2 0.53,-1.19 0.64,-1.43l1.2 -2.61c0.09,-0.2 0.18,-0.4 0.27,-0.58 0.42,-0.83 0.9,-1.99 1.33,-2.86 0.52,-1.08 1.09,-2.43 1.6,-3.46 0.11,-0.2 0.18,-0.38 0.27,-0.58 0.35,-0.69 0.73,-1.62 1.07,-2.3 0.37,-0.72 0.36,-0.92 0.89,-1.63l0.39 -0.46c0.58,-0.58 1.51,-1 2.36,-1l2.96 0c0,1.45 0.08,2.81 0.08,4.26 0,0.41 0.04,0.66 0.04,1.05 0,0.36 -0.01,0.74 0,1.1l0.04 1.05c0,0.41 0.05,0.67 0.04,1.06 0,1.43 0.09,2.83 0.08,4.25l0.05 2.15c0.06,0.52 0.02,1.06 0.03,1.59 0.01,0.21 0.12,0.4 -0.08,0.4l-3.32 0 -0.04 -3.49 -4.79 0c-0.14,0 -0.37,0.62 -0.47,0.83 -0.32,0.68 -0.91,2.06 -1.23,2.66zm-22.31 0.2c-0.33,0 -0.88,-0.06 -1.17,-0.12 -2.04,-0.43 -3.56,-1.8 -4.04,-3.88 -0.03,-0.16 -0.08,-0.39 -0.1,-0.54 -0.07,-0.74 -0.05,-1.05 0.07,-1.79l0.7 -4.33c0.29,-1.68 0.72,-3.02 2,-4.29 0.54,-0.55 0.68,-0.7 1.36,-1.16 2.18,-1.46 5.34,-1.76 7.42,0.06 0.33,0.29 0.47,0.44 0.76,0.82 1.36,1.81 1.03,3.49 0.69,5.52 -0.17,1.04 -0.51,3.38 -0.72,4.23 -0.09,0.35 -0.19,0.61 -0.32,0.94 -0.11,0.25 -0.27,0.59 -0.42,0.84 -0.14,0.24 -0.32,0.5 -0.49,0.72l-0.58 0.68c-0.78,0.82 -1.96,1.57 -3.02,1.92 -0.64,0.22 -1.45,0.38 -2.14,0.38zm13.02 -6.04l-0.95 4.36c-0.06,0.27 -0.11,0.47 -0.16,0.73 -0.05,0.24 -0.14,0.53 -0.15,0.75l-3.36 0c0,-0.22 0.06,-0.34 0.1,-0.55 0.36,-1.97 0.83,-4.05 1.17,-6l1.83 -9.28c0.04,-0.19 0.06,-0.38 0.13,-0.53 0.11,-0.26 0.43,-0.55 0.78,-0.55l7.14 0c0.38,0 0.8,0.11 1.09,0.21 1.11,0.37 1.63,1.28 1.63,2.55 0,0.59 -0.25,1.32 -0.36,1.83 -0.18,0.89 -0.58,2.72 -0.94,3.44 -0.25,0.5 -0.54,0.92 -0.92,1.31 -0.79,0.78 -1.7,1.34 -2.85,1.57 -1.1,0.23 -0.98,0.16 -1.95,0.16 -0.74,0 -1.48,0 -2.23,0zm-22.71 -0.4c0,0.23 0.56,1.36 0.66,1.61 0.12,0.28 0.22,0.51 0.34,0.79l1.72 3.96c-0.5,0 -1,0 -1.5,0 -0.65,0 -0.87,0.02 -1.35,-0.15 -0.17,-0.07 -0.32,-0.17 -0.45,-0.28 -0.81,-0.66 -1.43,-2.39 -1.86,-3.46l-0.68 -1.59c-0.06,-0.14 -0.14,-0.48 -0.29,-0.48l-2.03 0 -0.94 4.41c-0.05,0.23 -0.11,0.5 -0.16,0.74 -0.05,0.3 -0.08,0.69 -0.24,0.69l-3.32 0c0,-0.29 0.34,-1.73 0.42,-2.18 0.02,-0.16 0.07,-0.37 0.11,-0.54 0.04,-0.17 0.06,-0.35 0.1,-0.54 0.38,-1.62 0.78,-3.79 1.11,-5.46l1.31 -6.52c0.11,-0.5 0.15,-1.19 0.49,-1.45 0.1,-0.08 0.33,-0.22 0.47,-0.22l7.1 0c1.5,0 2.72,0.97 2.72,2.63 0,0.61 -0.77,4.6 -0.89,5 -0.2,0.66 -0.73,1.58 -1.26,2.02 -0.33,0.27 -1.11,0.98 -1.58,1.02zm-15.86 6.24c-1.37,0 -3.1,0.18 -4.1,-0.53 -1.19,-0.84 -1.26,-1.89 -1.25,-3.16 0,-0.27 -0.04,-0.39 -0.05,-0.61 -0.02,-0.83 0.01,-1.71 0.01,-2.55l-0.04 -7.55c0,-0.88 -0.04,-1.65 -0.04,-2.51l3.32 0 0 5.19c0,0.62 0.04,1.12 0.04,1.7 0,1.56 -0.06,4.53 0.04,6.04 0.02,0.26 0.11,0.52 0.33,0.57 0.13,-0.09 0.03,0 0.11,-0.17l5.64 -12.89c0.07,-0.16 0.13,-0.27 0.17,-0.44l3.53 0c-0.03,0.12 -0.16,0.39 -0.22,0.51l-1.43 3.19c-0.08,0.18 -0.16,0.36 -0.25,0.53l-1.43 3.18c-0.38,0.93 -1.05,2.25 -1.44,3.19 -0.3,0.72 -0.67,1.44 -0.96,2.12l-1.68 3.72c-0.06,0.13 -0.14,0.47 -0.3,0.47zm-7.5 -13.63l-6.78 0c0,0.26 -0.09,0.65 -0.13,0.92l-0.3 1.81c-0.05,0.32 -0.13,0.63 -0.13,0.96l6 0 -0.52 2.93c-0.09,0.48 0.1,0.36 -1.39,0.36l-4.3 0c-0.63,-0.01 -0.36,-0.11 -0.76,1.87l-0.25 1.5 8.03 0 -0.61 3.28c-0.97,0 -4.3,0.04 -4.99,-0.03 -0.49,-0.06 -2.96,-0.01 -3.77,-0.01 -1.03,0.01 -2.01,-0.58 -2.11,-1.7 -0.07,-0.85 0.47,-3.38 0.64,-4.35l1.14 -6.45c0.06,-0.37 0.13,-0.68 0.19,-1.06 0.08,-0.48 0.26,-1.7 0.45,-2.07 0.27,-0.56 0.78,-1.01 1.39,-1.17 0.51,-0.13 3.09,-0.07 3.74,-0.07 1.69,0 3.38,0 5.07,0 -0.22,0.93 -0.39,2.35 -0.61,3.28z"/>
    <path class="fil2" d="M48.91 126.22l2.07 -3.77c0.13,-0.25 0.27,-0.53 0.42,-0.77l1.65 -3.01c0.36,-0.62 -0.11,-0.41 1.69,-0.66l4.15 -0.55c0.7,-0.08 1.35,-0.17 2.05,-0.26 3.41,-0.47 6.98,-0.87 10.37,-1.36l29.01 -3.79c0.69,-0.1 1.36,-0.2 2.04,-0.27 0.35,-0.04 0.68,-0.09 1.05,-0.14 0.35,-0.05 0.7,-0.11 1.03,-0.14 0.66,-0.06 3.84,-0.53 4.17,-0.53 -0.04,0.16 -0.38,0.5 -0.49,0.64 -0.1,0.1 -0.17,0.2 -0.27,0.3 -0.05,0.06 -0.09,0.11 -0.13,0.16 -0.09,0.09 -0.05,0.07 -0.21,0.11l-20.8 4.98c-0.63,0.15 -1.26,0.33 -1.87,0.46l-1.9 0.44c-1.25,0.33 -2.51,0.6 -3.79,0.92 -3.73,0.94 -7.55,1.77 -11.31,2.72 -2.5,0.63 -5.05,1.19 -7.56,1.81l-7.55 1.82c-0.15,0.03 -3.61,0.88 -3.82,0.89z"/>
    <path class="fil2" d="M0 110.77l85.66 0c0.94,0 1.89,0 2.84,-0.01 0.43,0 0.51,0.11 1.02,0.4l0.92 0.54c-0.4,0 -2.43,0.23 -3,0.24l-1.49 0.13c-0.21,0.01 -0.53,0.06 -0.74,0.07l-1.5 0.13c-0.23,0.01 -0.52,0.02 -0.75,0.05 -0.72,0.11 -2.19,0.15 -2.99,0.26l-1.53 0.13c-0.75,0.06 -3.17,0.22 -3.75,0.31 -0.19,0.03 -0.58,0.06 -0.75,0.06l-7.52 0.63c-0.22,0.03 -0.55,0.05 -0.76,0.06l-3.73 0.31c-0.5,0.06 -1.03,0.09 -1.5,0.13l-5.24 0.44c-0.59,0.08 -1.59,0.09 -2.29,0.18 -0.57,0.08 -1.04,0.06 -1.5,0.12 -0.81,0.11 -2.25,0.15 -2.99,0.26 -0.49,0.07 -1.04,0.07 -1.5,0.13 -0.25,0.03 -0.5,0.03 -0.75,0.05l-11.27 0.94c-0.5,0.07 -1.08,0.07 -1.49,0.13 -0.49,0.07 -1.03,0.07 -1.49,0.13l-3.03 0.26c-1.4,0.07 -3.19,0.31 -4.5,0.36 -0.63,0.03 -1.6,0.16 -2.24,0.21l-2.26 0.17c-1.48,0.15 -3.05,0.23 -4.51,0.39l-1.5 0.11c-0.13,-0.01 -3.35,-1.76 -3.72,-1.94l-2.15 -1.14c-1.36,-0.68 -2.9,-1.58 -4.27,-2.26l-3.73 -1.98z"/>
    <path class="fil2" d="M95.27 105.94l9.94 0c-0.06,0.12 -0.08,0.34 -0.11,0.5 -0.04,0.22 -0.07,0.32 -0.11,0.54 -0.07,0.38 -0.14,0.67 -0.21,1.04 -0.14,0.71 -0.27,1.41 -0.42,2.1 -1.4,0 -2.68,-0.04 -4.06,-0.04l-6.21 0c-0.79,0 -1.27,0 -1.86,-0.21 -1.03,-0.37 -1.66,-1.3 -1.66,-2.47 0,-0.39 0.62,-4.01 0.75,-4.4 0.21,-0.62 0.52,-1.18 0.92,-1.68 0.14,-0.17 0.25,-0.29 0.39,-0.46 0.06,-0.07 0.12,-0.13 0.2,-0.2l1.2 -0.99c0.18,-0.13 0.33,-0.22 0.52,-0.33l6.79 -3.55c1.24,-0.62 1.26,-0.57 1.59,-1.86 0.08,-0.34 0.29,-1.17 0.29,-1.46 0,-0.24 -0.16,-0.32 -0.41,-0.32l-8.88 0c0.01,-0.17 0.06,-0.32 0.08,-0.49l0.61 -3.65c2.69,0 5.38,0 8.07,0 1.21,0 2.38,-0.04 3.41,0.65 2.15,1.43 1.3,3.87 0.96,5.83 -0.28,1.64 -0.88,3.47 -2.42,4.23l-6.58 3.35c-1.21,0.65 -2.09,0.94 -2.52,2.47 -0.12,0.42 -0.27,0.9 -0.27,1.4z"/>
   </g>
  </g>
 </g>
</svg>
