<?xml version="1.0" encoding="UTF-8"?>
<!DOCTYPE svg PUBLIC "-//W3C//DTD SVG 1.1//EN" "http://www.w3.org/Graphics/SVG/1.1/DTD/svg11.dtd">
<!-- Creator: CorelDRAW -->
<svg xmlns="http://www.w3.org/2000/svg" xml:space="preserve" width="94px" height="94px" version="1.1" style="shape-rendering:geometricPrecision; text-rendering:geometricPrecision; image-rendering:optimizeQuality; fill-rule:evenodd; clip-rule:evenodd"
viewBox="0 0 9.09 9.09"
 xmlns:xlink="http://www.w3.org/1999/xlink"
 xmlns:xodm="http://www.corel.com/coreldraw/odm/2003">
 <defs>
  <style type="text/css">
   <![CDATA[
    .fil1 {fill:white;fill-rule:nonzero}
    .fil0 {fill:#4A6DA7;fill-rule:nonzero}
   ]]>
  </style>
 </defs>
 <g id="Vrstva_x0020_1">
  <metadata id="CorelCorpID_0Corel-Layer"/>
  <g id="_105556035216448">
   <path class="fil0" d="M4.55 9.09l0 0c-2.52,0 -4.55,-2.03 -4.55,-4.55 0,-2.51 2.03,-4.54 4.55,-4.54 2.51,0 4.54,2.03 4.54,4.54 0,2.52 -2.03,4.55 -4.54,4.55z"/>
   <path class="fil1" d="M3.85 7.29l1.11 0 0 -2.77 0.77 0 0.08 -0.93 -0.85 0c0,0 0,-0.34 0,-0.52 0,-0.22 0.04,-0.31 0.25,-0.31 0.17,0 0.6,0 0.6,0l0 -0.96c0,0 -0.63,0 -0.76,0 -0.83,0 -1.2,0.36 -1.2,1.05 0,0.61 0,0.74 0,0.74l-0.57 0 0 0.94 0.57 0 0 2.76z"/>
  </g>
 </g>
</svg>
