<?xml version="1.0" encoding="iso-8859-1"?>
<!-- Generator: Adobe Illustrator 16.0.4, SVG Export Plug-In . SVG Version: 6.00 Build 0)  -->
<!DOCTYPE svg PUBLIC "-//W3C//DTD SVG 1.1//EN" "http://www.w3.org/Graphics/SVG/1.1/DTD/svg11.dtd">
<svg version="1.1" id="Vrstva_1" xmlns="http://www.w3.org/2000/svg" xmlns:xlink="http://www.w3.org/1999/xlink" x="0px" y="0px"
	 width="380.6px" height="173.261px" viewBox="0 0 380.6 173.261" style="enable-background:new 0 0 380.6 173.261;"
	 xml:space="preserve">
<g>
	<g>
		<path style="fill:#C3002F;" d="M211.775,61.238v0.72c0,1.536-0.176,3.041-0.527,4.512c-0.354,1.473-0.937,2.785-1.753,3.936
			c-0.815,1.152-1.896,2.073-3.239,2.76c-1.344,0.688-3.023,1.032-5.041,1.032c-2.176,0-3.982-0.352-5.424-1.056
			c-1.439-0.703-2.6-1.792-3.479-3.263s-1.505-3.319-1.872-5.544c-0.369-2.224-0.553-4.872-0.553-7.944s0.184-5.72,0.553-7.944
			c0.367-2.224,0.992-4.072,1.872-5.544c0.88-1.471,2.048-2.56,3.504-3.264c1.456-0.703,3.272-1.056,5.448-1.056
			c2.432,0,4.336,0.393,5.712,1.177c1.376,0.784,2.407,1.736,3.097,2.856c0.688,1.121,1.11,2.296,1.271,3.527
			c0.159,1.233,0.24,2.297,0.24,3.192v0.624h-5.473v-0.576c0-0.8-0.072-1.608-0.217-2.424c-0.143-0.816-0.399-1.543-0.768-2.184
			c-0.367-0.639-0.863-1.152-1.487-1.536c-0.624-0.384-1.433-0.56-2.425-0.527c-1.023,0-1.903,0.185-2.639,0.552
			c-0.737,0.368-1.344,1.056-1.824,2.064s-0.832,2.392-1.057,4.152s-0.336,4.016-0.336,6.768c0,2.752,0.111,5.024,0.336,6.815
			c0.225,1.792,0.576,3.208,1.057,4.249c0.48,1.04,1.087,1.76,1.824,2.159c0.735,0.401,1.615,0.6,2.639,0.6
			c1.152,0,2.064-0.28,2.736-0.84c0.672-0.56,1.184-1.255,1.536-2.088c0.352-0.831,0.577-1.727,0.672-2.688
			c0.097-0.96,0.145-1.84,0.145-2.64v-0.577H211.775z"/>
		<path style="fill:#C3002F;" d="M212.207,69.206l14.352-25.344h-13.486v-4.607h19.486v4.607l-14.352,25.057h14.496v4.607h-20.496
			V69.206z"/>
		<path style="fill:#C3002F;" d="M234.959,39.254h18.529v4.607h-13.057v9.504h12.287v4.608h-12.287v10.945h13.439v4.607h-18.912
			V39.254z"/>
		<path style="fill:#C3002F;" d="M277.679,61.238v0.72c0,1.536-0.176,3.041-0.528,4.512c-0.352,1.473-0.936,2.785-1.752,3.936
			c-0.816,1.152-1.896,2.073-3.239,2.76c-1.345,0.688-3.024,1.032-5.04,1.032c-2.178,0-3.984-0.352-5.424-1.056
			c-1.441-0.703-2.602-1.792-3.48-3.263c-0.881-1.472-1.505-3.319-1.872-5.544c-0.368-2.224-0.552-4.872-0.552-7.944
			s0.184-5.72,0.552-7.944c0.367-2.224,0.991-4.072,1.872-5.544c0.879-1.471,2.047-2.56,3.504-3.264
			c1.456-0.703,3.271-1.056,5.448-1.056c2.431,0,4.336,0.393,5.712,1.177c1.375,0.784,2.408,1.736,3.096,2.856
			c0.688,1.121,1.111,2.296,1.271,3.527c0.16,1.233,0.24,2.297,0.24,3.192v0.624h-5.472v-0.576c0-0.8-0.071-1.608-0.216-2.424
			c-0.145-0.816-0.4-1.543-0.768-2.184c-0.369-0.639-0.864-1.152-1.488-1.536c-0.625-0.384-1.434-0.56-2.424-0.527
			c-1.025,0-1.904,0.185-2.641,0.552c-0.736,0.368-1.344,1.056-1.824,2.064c-0.479,1.008-0.832,2.392-1.055,4.152
			c-0.225,1.76-0.336,4.016-0.336,6.768c0,2.752,0.111,5.024,0.336,6.815c0.223,1.792,0.575,3.208,1.055,4.249
			c0.48,1.04,1.088,1.76,1.824,2.159c0.736,0.401,1.615,0.6,2.641,0.6c1.152,0,2.063-0.28,2.735-0.84
			c0.673-0.56,1.184-1.255,1.536-2.088c0.352-0.831,0.576-1.727,0.672-2.688c0.097-0.96,0.145-1.84,0.145-2.64v-0.577H277.679z"/>
		<path style="fill:#C3002F;" d="M280.078,39.254h5.473v13.728h10.08V39.254h5.473v34.271h-5.473V57.59h-10.08v15.936h-5.473V39.254
			z"/>
		<path style="fill:#C3002F;" d="M190.703,82.454H202.8c1.183,0,2.304,0.16,3.359,0.48c1.056,0.32,1.984,0.833,2.784,1.536
			c0.799,0.705,1.424,1.617,1.872,2.736c0.448,1.121,0.672,2.48,0.672,4.081c0,2.208-0.473,4.088-1.415,5.64
			c-0.945,1.552-2.377,2.472-4.297,2.76v0.096c1.729,0.16,3.031,0.768,3.912,1.824c0.879,1.056,1.367,2.784,1.464,5.184
			c0.031,1.121,0.056,2.304,0.071,3.552c0.016,1.249,0.057,2.384,0.121,3.409c0.064,0.832,0.264,1.472,0.6,1.919
			c0.336,0.448,0.68,0.801,1.032,1.056h-6.192c-0.256-0.319-0.456-0.736-0.6-1.248c-0.145-0.512-0.248-1.105-0.312-1.777
			c-0.096-0.991-0.145-2.016-0.145-3.072c0-0.512-0.008-1.047-0.023-1.608c-0.016-0.559-0.04-1.159-0.071-1.8
			c-0.065-1.92-0.449-3.295-1.152-4.128c-0.704-0.832-1.984-1.248-3.84-1.248h-4.464v14.88h-5.473V82.454z M200.543,97.718
			c1.76,0,3.112-0.496,4.057-1.488c0.943-0.991,1.416-2.352,1.416-4.08c0-1.824-0.408-3.208-1.225-4.152
			c-0.815-0.944-2.136-1.416-3.959-1.416h-4.656v11.136H200.543z"/>
		<path style="fill:#C3002F;" d="M215.039,82.454h18.527v4.608h-13.056v9.504h12.288v4.608h-12.288v10.944h13.44v4.608h-18.912
			V82.454z"/>
		<path style="fill:#C3002F;" d="M236.687,82.454h10.849c1.631,0,3.047,0.249,4.248,0.744c1.199,0.497,2.184,1.185,2.951,2.064
			c0.768,0.88,1.336,1.928,1.705,3.144c0.367,1.217,0.551,2.561,0.551,4.032c0,3.072-0.871,5.529-2.615,7.368
			c-1.744,1.841-4.217,2.76-7.416,2.76h-4.801v14.16h-5.472V82.454z M242.158,98.438h3.889c0.734,0,1.432-0.104,2.088-0.312
			c0.654-0.208,1.239-0.543,1.752-1.008c0.512-0.464,0.912-1.072,1.199-1.824c0.289-0.751,0.433-1.672,0.433-2.76
			c0-1.855-0.433-3.312-1.296-4.368c-0.864-1.056-2.385-1.583-4.561-1.583h-3.504V98.438z"/>
		<path style="fill:#C3002F;" d="M264.287,82.454v24.576c0,2.208,0.424,3.8,1.271,4.776c0.848,0.977,2.104,1.464,3.768,1.464
			c1.633,0,2.872-0.488,3.721-1.464c0.848-0.976,1.271-2.568,1.271-4.776V82.454h5.473v24.144c0,1.984-0.24,3.665-0.721,5.04
			c-0.48,1.376-1.168,2.489-2.063,3.336c-0.896,0.849-1.992,1.464-3.288,1.849c-1.297,0.383-2.76,0.576-4.393,0.576
			c-1.632,0-3.104-0.192-4.416-0.576c-1.312-0.384-2.416-1-3.311-1.849c-0.897-0.847-1.585-1.959-2.064-3.336
			c-0.48-1.375-0.721-3.055-0.721-5.04V82.454H264.287z"/>
		<path style="fill:#C3002F;" d="M283.582,82.454h11.088c1.279,0,2.479,0.152,3.6,0.457c1.12,0.304,2.096,0.784,2.928,1.439
			c0.832,0.656,1.488,1.512,1.969,2.568c0.48,1.055,0.72,2.336,0.72,3.84c0,4.128-1.68,6.72-5.04,7.775v0.096
			c0.928,0.161,1.775,0.432,2.544,0.816c0.769,0.384,1.417,0.92,1.944,1.608c0.527,0.688,0.936,1.552,1.224,2.592
			c0.288,1.04,0.433,2.28,0.433,3.719c0,1.44-0.249,2.736-0.744,3.889c-0.497,1.151-1.2,2.136-2.111,2.951
			c-0.913,0.816-2.025,1.441-3.338,1.873c-1.312,0.432-2.768,0.647-4.367,0.647h-10.848V82.454z M293.374,96.902
			c1.663,0,2.919-0.495,3.769-1.487c0.848-0.992,1.271-2.304,1.271-3.936c0-1.024-0.145-1.855-0.432-2.496
			c-0.289-0.64-0.682-1.136-1.176-1.488c-0.498-0.352-1.081-0.591-1.753-0.72c-0.672-0.127-1.392-0.191-2.16-0.191h-3.84v10.319
			H293.374z M294.479,112.598c1.631,0,2.879-0.504,3.743-1.512s1.296-2.521,1.296-4.536c0-1.855-0.488-3.288-1.464-4.296
			c-0.977-1.008-2.28-1.513-3.911-1.513h-5.089v11.856H294.479z"/>
		<path style="fill:#C3002F;" d="M307.293,82.454h5.472v29.664h13.249v4.608h-18.721V82.454z"/>
		<path style="fill:#C3002F;" d="M327.549,82.454h5.473v34.272h-5.473V82.454z"/>
		<path style="fill:#C3002F;" d="M358.076,104.438v0.72c0,1.536-0.176,3.041-0.529,4.512c-0.352,1.473-0.936,2.784-1.751,3.936
			c-0.816,1.152-1.896,2.072-3.239,2.76c-1.346,0.688-3.025,1.032-5.041,1.032c-2.177,0-3.984-0.353-5.424-1.056
			c-1.44-0.703-2.601-1.792-3.48-3.263c-0.881-1.472-1.504-3.32-1.871-5.545c-0.369-2.223-0.553-4.872-0.553-7.943
			c0-3.072,0.184-5.72,0.553-7.944c0.367-2.224,0.99-4.072,1.871-5.544c0.88-1.471,2.048-2.56,3.504-3.264
			c1.457-0.703,3.271-1.056,5.449-1.056c2.431,0,4.336,0.392,5.711,1.176c1.376,0.785,2.408,1.736,3.096,2.856
			c0.688,1.12,1.112,2.296,1.272,3.527c0.16,1.233,0.239,2.297,0.239,3.192v0.625h-5.471v-0.576c0-0.8-0.072-1.609-0.217-2.424
			c-0.145-0.816-0.4-1.544-0.768-2.185c-0.369-0.639-0.863-1.151-1.488-1.536c-0.624-0.384-1.433-0.56-2.424-0.527
			c-1.024,0-1.904,0.184-2.641,0.551c-0.736,0.368-1.344,1.056-1.824,2.064c-0.479,1.008-0.832,2.393-1.055,4.152
			c-0.225,1.76-0.336,4.016-0.336,6.768s0.111,5.024,0.336,6.816c0.223,1.792,0.576,3.208,1.055,4.248
			c0.48,1.04,1.088,1.76,1.824,2.16c0.736,0.401,1.616,0.6,2.641,0.6c1.152,0,2.064-0.28,2.736-0.84
			c0.672-0.56,1.184-1.256,1.535-2.088c0.353-0.832,0.576-1.728,0.673-2.688c0.097-0.96,0.144-1.84,0.144-2.64v-0.576H358.076z"/>
	</g>
	<g>
		<path style="fill:#C3002F;" d="M376.186,169.28v-1.311h0.402c0.561,0,0.811,0.245,0.811,0.633c0,0.341-0.184,0.677-0.811,0.677
			H376.186z M378.281,171.616l-0.77-1.944c0.449-0.381,0.504-0.627,0.504-1.046c0-0.723-0.527-1.164-1.365-1.164h-1.057v4.158h0.592
			v-1.87h0.725l0.75,1.866H378.281z"/>
		<path style="fill:#C3002F;" d="M376.822,166.195c-1.82,0-3.303,1.478-3.303,3.292c0,1.821,1.482,3.287,3.303,3.287
			c1.807,0,3.281-1.466,3.281-3.287C380.104,167.673,378.629,166.195,376.822,166.195 M376.822,173.261
			c-2.088,0-3.785-1.69-3.785-3.773c0-2.082,1.697-3.774,3.785-3.774c2.074,0,3.777,1.692,3.777,3.774
			C380.6,171.571,378.896,173.261,376.822,173.261"/>
		<polygon style="fill:#C3002F;" points="177.785,134.316 167.632,165.83 155.402,134.509 152.264,134.509 166.97,172.938 
			168.347,172.938 178.86,139.062 189.549,172.938 190.934,172.938 205.562,134.509 202.352,134.509 190.295,165.808 
			180.011,134.316 		"/>
		<polygon style="fill:#C3002F;" points="218.248,134.475 218.248,172.626 236.912,172.626 236.912,170.164 221.205,170.164 
			221.205,134.475 		"/>
		<polygon style="fill:#C3002F;" points="242.354,134.475 242.354,172.626 261.014,172.626 261.014,170.164 245.297,170.164 
			245.297,134.475 		"/>
		<rect x="266.217" y="134.477" style="fill:#C3002F;" width="2.961" height="38.149"/>
		<rect x="209.844" y="134.477" style="fill:#C3002F;" width="2.973" height="38.149"/>
		<path style="fill:#C3002F;" d="M289.82,139.073l7.363,17.933h-14.668L289.82,139.073z M289.127,134.278l-15.775,38.348h2.754
			l5.4-13.181h16.678l5.391,13.181h2.771l-15.775-38.348H289.127z"/>
		<polygon style="fill:#C3002F;" points="342.424,134.552 327.91,152.259 313.395,134.552 310.441,134.552 310.441,172.626 
			313.395,172.626 313.395,138.863 313.508,138.863 327.91,156.655 342.299,138.863 342.424,138.863 342.424,172.626 
			345.389,172.626 345.389,134.552 		"/>
		<path style="fill:#C3002F;" d="M369.861,140.732c-2.414-3.118-5.834-3.854-8.465-3.854c-4.576,0-8.033,3.129-8.033,7.276
			c0,10.145,18.137,5.294,18.137,18.635c0,5.862-4.852,10.434-11.059,10.434c-3.125,0-6.471-0.855-9.768-3.354v-3.456
			c3.717,3.521,6.643,4.077,9.605,4.077c4.525,0,8.025-3.294,8.025-7.591c0-10.826-18.127-6.09-18.127-18.643
			c0-5.627,4.902-10.085,10.945-10.108c3.066,0,6.99,1.255,8.738,3.352V140.732z"/>
		<polygon style="fill:#C3002F;" points="56.907,134.593 56.907,172.727 76.513,172.727 76.513,167.802 62.383,167.802 
			62.383,134.593 		"/>
		<polygon style="fill:#C3002F;" points="80.022,134.593 80.022,172.727 99.628,172.727 99.628,167.802 85.503,167.802 
			85.503,134.593 		"/>
		<polygon style="fill:#C3002F;" points="103.162,134.593 103.162,172.727 125.307,172.727 125.307,167.802 108.637,167.802 
			108.637,155.957 124.255,155.957 124.255,151.029 108.637,151.029 108.637,139.513 124.803,139.513 124.803,134.593 		"/>
		<path style="fill:#C3002F;" d="M134.356,151.263v-11.966h3.521c5.313,0,7.439,2.184,7.498,5.753
			c0.053,3.199-1.625,6.213-7.498,6.213H134.356z M153.447,172.72l-7.064-17.81c4.206-3.472,4.68-5.825,4.632-9.643
			c-0.062-6.597-4.802-10.674-12.519-10.674h-9.619v38.138h5.479v-17.046c0,0,4.533,0.002,6.532-0.01l6.895,17.045H153.447z"/>
		<polygon style="fill:#C3002F;" points="31.221,134.593 31.221,172.667 53.327,172.667 53.327,167.751 36.701,167.751 
			36.701,155.917 52.271,155.917 52.271,151.008 36.701,151.008 36.701,139.507 52.83,139.507 52.83,134.593 		"/>
		<polygon style="fill:#C3002F;" points="21.469,134.593 19.532,136.689 5.491,151.969 5.491,134.593 0.022,134.593 0.022,172.59 
			5.491,172.59 5.491,159.546 11.582,152.878 19.546,172.601 25.194,172.601 25.194,172.599 23.201,167.695 15.478,148.596 
			23.79,139.496 28.267,134.593 		"/>
		<polygon style="fill:#C3002F;" points="0,0 0,115.358 16.101,115.358 16.101,88.302 27.899,76.568 44.318,115.358 60.628,115.358 
			38.944,63.89 54.163,47.028 83.681,115.358 89.879,115.358 112.021,62.508 134.526,115.358 140.636,115.358 174.36,37.557 
			157.847,37.557 137.543,84.762 117.85,37.557 106.459,37.557 86.606,84.762 66.189,37.557 44.784,37.557 16.101,66.186 16.101,0 
					"/>
	</g>
</g>
</svg>
